<?xml version="1.0" encoding="UTF-8"?>
<svg version="1.1" xmlns="http://www.w3.org/2000/svg" width="1254" height="1254">
<path d="M0 0 C413.82 0 827.64 0 1254 0 C1254 413.82 1254 827.64 1254 1254 C840.18 1254 426.36 1254 0 1254 C0 840.18 0 426.36 0 0 Z " fill="#00020E" transform="translate(0,0)"/>
<path d="M0 0 C3.16421228 1.98885346 4.77667809 3.02352397 5.62559515 6.7354176 C5.62586484 7.79451801 5.62613453 8.85361842 5.62641239 9.94481277 C5.63883443 11.16906503 5.65125647 12.39331728 5.66405493 13.65466809 C5.6525532 15.01532707 5.64058095 16.37598214 5.62818909 17.7366333 C5.63323269 19.18062114 5.64046008 20.62460273 5.64968723 22.0685699 C5.66866615 26.04220604 5.65634413 30.01522915 5.6389643 33.98885012 C5.6256217 38.27273123 5.64101689 42.55652078 5.65278625 46.84039307 C5.67119616 55.23809661 5.6626258 63.63556793 5.64469803 72.03326431 C5.63067936 78.86371258 5.62677768 85.69409775 5.6301403 92.52455902 C5.63085647 93.98220747 5.63085647 93.98220747 5.6315871 95.46930335 C5.63261344 97.44350953 5.6336688 99.4177157 5.63475286 101.39192185 C5.64332812 118.86581984 5.6266243 136.33960583 5.59692383 153.81347656 C5.56813768 170.74972247 5.56097658 187.68580668 5.57641602 204.62207031 C5.59320807 223.06729355 5.59717766 241.51243992 5.57970566 259.95766521 C5.57786134 261.92832739 5.57602661 263.89898959 5.57420158 265.86965179 C5.57328949 266.83918726 5.5723774 267.80872273 5.57143768 268.80763806 C5.56584683 275.61897704 5.56912639 282.43027837 5.57574654 289.2416153 C5.58350943 297.5590728 5.576623 305.87637157 5.5515715 314.19379726 C5.53913846 318.43274406 5.53285351 322.67144459 5.54411316 326.91040039 C5.55425427 330.80208286 5.54548936 334.69327741 5.52253198 338.58490118 C5.5174298 339.98208791 5.51882932 341.37931941 5.52792663 342.77648583 C5.61055076 356.6347502 3.17338724 369.97811834 -4 382 C-4.53753906 382.91394531 -5.07507813 383.82789063 -5.62890625 384.76953125 C-16.20397583 402.06343699 -31.22619271 410.77248526 -48.41015625 420.7265625 C-53.54459931 423.70934642 -58.5998904 426.81084524 -63.65014648 429.93359375 C-68.66433605 433.02667009 -73.70609387 436.07389586 -78.74581909 439.12512207 C-91.21121546 446.67449279 -103.62411341 454.30464352 -116 462 C-128.16055217 469.56146101 -140.36239453 477.04962847 -152.6126709 484.46463013 C-160.88660198 489.47518568 -169.11954052 494.545132 -177.3125 499.6875 C-187.78666624 506.26087692 -198.32824106 512.71609551 -208.90429688 519.12402344 C-212.22374069 521.13558545 -215.54176605 523.14947652 -218.859375 525.1640625 C-219.44376846 525.51892227 -220.02816193 525.87378204 -220.63026428 526.23939514 C-221.82155673 526.96278366 -223.01284598 527.68617745 -224.20413208 528.40957642 C-225.99788762 529.49871739 -227.79177033 530.58764859 -229.58569336 531.67651367 C-236.0525064 535.60183334 -242.51804267 539.52923379 -248.97949219 543.46337891 C-250.8530866 544.60361707 -252.72742415 545.74263511 -254.60253906 546.88037109 C-259.47152721 549.83721528 -264.32217313 552.81994302 -269.15234375 555.83984375 C-270.68314575 556.78984253 -270.68314575 556.78984253 -272.24487305 557.7590332 C-274.17728609 558.95892214 -276.10496592 560.16648594 -278.02661133 561.38354492 C-284.13278374 565.16042672 -290.169304 567.80980628 -297 570 C-298.12535156 570.40347656 -299.25070312 570.80695312 -300.41015625 571.22265625 C-328.27425123 577.25633949 -349.01412799 565.97125007 -372 552 C-373.217021 551.26252795 -374.43414433 550.52522476 -375.65136719 549.78808594 C-380.51132108 546.84305712 -385.36865878 543.89382348 -390.21728516 540.93017578 C-396.90874066 536.84401393 -403.64340461 532.87631975 -410.50634766 529.0859375 C-415.8201174 526.13868654 -420.98965238 522.9828612 -426.15991211 519.79199219 C-435.44520122 514.07886683 -444.83637616 508.54366035 -454.21679688 502.98876953 C-455.53387702 502.20869744 -456.85093446 501.42858702 -458.16796875 500.6484375 C-458.81664917 500.26424652 -459.46532959 499.88005554 -460.13366699 499.48422241 C-465.33820054 496.39892294 -470.52681319 493.28758229 -475.71180725 490.16958618 C-479.3507968 487.98320935 -483.00078828 485.81744538 -486.6640625 483.671875 C-487.49550781 483.18203125 -488.32695312 482.6921875 -489.18359375 482.1875 C-490.84704492 481.20805995 -492.51386422 480.23432305 -494.18359375 479.265625 C-505.0789979 472.8141731 -505.0789979 472.8141731 -507.125 466.5625 C-506.96653739 462.04631573 -505.11142552 460.02534814 -502 457 C-498.9765625 454.88525391 -498.9765625 454.88525391 -495.625 452.9765625 C-495.01922119 452.62669281 -494.41344238 452.27682312 -493.78930664 451.91635132 C-491.86563477 450.80816649 -489.93340982 449.71608906 -488 448.625 C-486.10513307 447.5422189 -484.21222102 446.45610782 -482.32006836 445.36859131 C-481.0664241 444.649709 -479.81072175 443.93440377 -478.55297852 443.22271729 C-475.45376975 441.4599489 -472.41874153 439.64730751 -469.4453125 437.67871094 C-460.07199682 431.48813337 -460.07199682 431.48813337 -455.85546875 431.12890625 C-450.32425002 432.37861423 -446.09505801 434.95558466 -441.3125 437.9375 C-439.17348586 439.22837637 -437.03414859 440.51871742 -434.89453125 441.80859375 C-433.21157959 442.83509033 -433.21157959 442.83509033 -431.49462891 443.88232422 C-426.15071857 447.13320457 -420.7416989 450.27343021 -415.33932495 453.42578125 C-412.88101415 454.86150557 -410.42561144 456.30216264 -407.9702301 457.7428894 C-400.73734363 461.98676993 -393.49526159 466.21478012 -386.25 470.4375 C-379.57942072 474.32667232 -372.90950149 478.2168826 -366.25 482.125 C-365.58548828 482.51308838 -364.92097656 482.90117676 -364.23632812 483.30102539 C-360.4438964 485.52536186 -356.69462106 487.80631033 -352.96875 490.140625 C-337.65638034 499.67947823 -324.69601974 505.85306091 -306.22265625 501.85546875 C-299.9901707 500.22451545 -295.27441775 497.49493641 -290 493.875 C-288.0866692 492.61019925 -286.171196 491.34863511 -284.25390625 490.08984375 C-283.24602051 489.42452637 -282.23813477 488.75920898 -281.19970703 488.07373047 C-275.5260727 484.39664745 -269.72867268 480.92528612 -263.9375 477.4375 C-261.54618604 475.99332584 -259.155798 474.54762406 -256.765625 473.1015625 C-256.1860051 472.75107346 -255.60638519 472.40058441 -255.00920105 472.03947449 C-249.71265608 468.83340789 -244.44593553 465.58057664 -239.1875 462.3125 C-231.98209025 457.8353049 -224.75093527 453.40308839 -217.5 449 C-203.65545938 440.58900712 -189.88433704 432.06336475 -176.15722656 423.4621582 C-166.29103692 417.28109366 -156.38863439 411.16689457 -146.43408203 405.12915039 C-139.23662758 400.76151175 -132.07333928 396.34128286 -124.92211914 391.8984375 C-119.37027304 388.45394155 -113.79570316 385.04936237 -108.20654297 381.66577148 C-100.21800234 376.82713023 -92.24643084 371.96502551 -84.375 366.9375 C-83.69469727 366.50872559 -83.01439453 366.07995117 -82.31347656 365.63818359 C-70.58094023 358.06677884 -64.1940575 347.40017057 -60.64310658 334.11525249 C-59.56097841 328.87334925 -59.64113084 323.73297738 -59.72239685 318.40002441 C-59.73147689 316.56609501 -59.73147689 316.56609501 -59.74074036 314.69511652 C-59.75604228 312.03027707 -59.77684598 309.36617495 -59.8072567 306.70153236 C-59.85665726 302.36437438 -59.88464868 298.02722127 -59.91000366 293.68986511 C-59.94351225 288.20696842 -59.98242879 282.72415628 -60.0277089 277.24134409 C-60.11630295 266.46811578 -60.16371114 255.69503933 -60.19606018 244.92150879 C-60.20135227 243.22208893 -60.20665824 241.52266911 -60.2119779 239.82324934 C-60.21997255 237.24844926 -60.22791133 234.67364905 -60.23572917 232.09884843 C-60.26515771 222.40849533 -60.29751555 212.71815676 -60.33520508 203.02783203 C-60.33863256 202.14274415 -60.34206003 201.25765626 -60.34559137 200.34574753 C-60.40289386 185.99450161 -60.5150178 171.64412563 -60.6445384 157.29337317 C-60.77615684 142.53833369 -60.83893761 127.7840821 -60.84061486 113.02845335 C-60.84400861 103.93697779 -60.90215512 94.84922917 -61.03134049 85.75865591 C-61.11494581 79.52829304 -61.13237389 73.29992404 -61.09831541 67.06910241 C-61.08068462 63.47644835 -61.09193302 59.89015638 -61.1826992 56.29846764 C-61.68415011 35.37237126 -61.68415011 35.37237126 -57.2566216 29.80961609 C-53.04890808 26.17908018 -48.41651577 23.95034577 -43.27014649 21.94713879 C-39.72445535 20.46782385 -36.5840647 18.42193008 -33.36328125 16.34765625 C-32.17965907 15.62379651 -30.99435623 14.90267032 -29.80664062 14.18554688 C-28.03814206 13.11116976 -26.26981438 12.0365202 -24.50219727 10.96069336 C-20.67394453 8.63074398 -16.84033067 6.31001709 -13 4 C-12.24912109 3.5467334 -11.49824219 3.0934668 -10.72460938 2.62646484 C-6.90747341 0.37243204 -4.48227736 -0.7795265 0 0 Z " fill="#5E3DF1" transform="translate(941,440)"/>
<path d="M0 0 C0.80646973 0.42635742 1.61293945 0.85271484 2.44384766 1.29199219 C14.00802312 7.43896382 25.37315906 13.89304878 36.62402344 20.59277344 C41.40044938 23.42172115 46.20260519 26.20681689 51 29 C57.8412152 32.9867147 64.6785278 36.97959116 71.5 41 C81.27959161 46.76265444 91.08886113 52.47433276 100.89599609 58.18994141 C103.91731748 59.95178479 106.93739749 61.71573478 109.95703125 63.48046875 C118.29628069 68.35253788 126.63701997 73.22131595 135.0078125 78.0390625 C135.59319794 78.37609695 136.17858337 78.71313141 136.78170776 79.06037903 C139.61085721 80.68887115 142.44109507 82.3154239 145.27294922 83.93920898 C148.18838611 85.61536722 151.09556357 87.30487101 154 89 C154.80953125 89.4626123 155.6190625 89.92522461 156.453125 90.40185547 C157.16984375 90.8248291 157.8865625 91.24780273 158.625 91.68359375 C159.54152344 92.21617798 159.54152344 92.21617798 160.4765625 92.75952148 C162.39387128 94.32071474 163.12650972 95.69703854 164 98 C163.92820513 101.948718 163.63394666 104.21681173 161.125 107.31640625 C157.02161471 111.19154119 151.94335866 113.74111921 147.0625 116.5 C144.90949653 117.73061735 142.75716855 118.96241713 140.60546875 120.1953125 C139.51153809 120.82083008 138.41760742 121.44634766 137.29052734 122.09082031 C134.0793115 123.95398309 130.90483885 125.86675625 127.73828125 127.8046875 C126.75142334 128.40474609 125.76456543 129.00480469 124.74780273 129.62304688 C122.87015788 130.76811184 120.9982733 131.92269073 119.13305664 133.08789062 C118.28219482 133.60287109 117.43133301 134.11785156 116.5546875 134.6484375 C115.81718262 135.10395996 115.07967773 135.55948242 114.31982422 136.02880859 C110.41457793 137.6637349 107.30276738 137.53360764 103.40478516 135.93701172 C102.54159668 135.43959473 101.6784082 134.94217773 100.7890625 134.4296875 C99.80405762 133.87015381 98.81905273 133.31062012 97.80419922 132.73413086 C96.75506348 132.12061768 95.70592773 131.50710449 94.625 130.875 C93.5230127 130.24408447 92.42102539 129.61316895 91.28564453 128.96313477 C87.84838944 126.98978688 84.42309556 124.99779109 81 123 C79.96294922 122.39687988 78.92589844 121.79375977 77.85742188 121.17236328 C73.86117945 118.84766326 69.86720062 116.51922128 65.87890625 114.1809082 C59.16238595 110.24482976 52.40956405 106.37998542 45.625 102.5625 C37.34574626 97.90399428 29.10025245 93.19071374 20.875 88.4375 C19.78759521 87.81061279 18.70019043 87.18372559 17.57983398 86.5378418 C12.4233012 83.56379653 7.27491543 80.5775437 2.14453125 77.55859375 C-13.40861569 68.44486571 -27.32014487 60.3297738 -46.0625 65 C-52.81263118 67.38042706 -58.91647651 71.28584882 -65 75 C-66.61261719 75.98226562 -66.61261719 75.98226562 -68.2578125 76.984375 C-70.40791534 78.30507699 -72.55497859 79.63073822 -74.69921875 80.9609375 C-79.9982347 84.23441244 -85.3486613 87.42142758 -90.69384766 90.61865234 C-93.2598703 92.15565807 -95.82342755 93.69672464 -98.38671875 95.23828125 C-110.23641701 102.36199728 -122.1077932 109.447544 -134 116.5 C-146.7510039 124.06190827 -159.47597218 131.66562702 -172.18066406 139.30517578 C-176.66032448 141.99809253 -181.14273787 144.68641678 -185.625 147.375 C-187.24610787 148.34763271 -188.86720211 149.32028816 -190.48828125 150.29296875 C-213.37890625 164.02734375 -213.37890625 164.02734375 -215.10766602 165.06445312 C-216.29192021 165.7751038 -217.47600057 166.48604425 -218.65991211 167.19726562 C-222.83152036 169.70247884 -227.00839936 172.19870899 -231.1875 174.69140625 C-233.41667195 176.02342865 -235.6458386 177.35545994 -237.875 178.6875 C-238.93315918 179.31736816 -239.99131836 179.94723633 -241.08154297 180.59619141 C-255.24680898 189.06856091 -266.57345404 196.0608095 -273 212 C-274.84876053 219.6049146 -275.30185045 227.0412451 -275.31643677 234.83879089 C-275.32631272 235.97933357 -275.33618868 237.11987625 -275.3463639 238.29498082 C-275.37690123 242.08881965 -275.39377684 245.88259136 -275.41064453 249.67651367 C-275.42874644 252.40718026 -275.44975503 255.13782272 -275.47064209 257.86846924 C-275.51398918 263.7330518 -275.55034394 269.59764359 -275.58185196 275.46230125 C-275.62741662 283.94144311 -275.68367825 292.42048793 -275.74249052 300.89954702 C-275.83763834 314.65865565 -275.92422144 328.41780416 -276.00537109 342.17700195 C-276.08418513 355.53705951 -276.16706223 368.89708176 -276.25537109 382.25708008 C-276.26081964 383.08158789 -276.26626818 383.90609571 -276.27188183 384.75558861 C-276.29924251 388.89219981 -276.32668271 393.02881048 -276.35416245 397.16542089 C-276.58177121 431.4435407 -276.79546025 465.72173495 -277 500 C-277.75820982 500.41127294 -278.51641964 500.82254587 -279.29760551 501.24628162 C-280.2906576 501.78616057 -281.28370968 502.32603952 -282.30685425 502.88227844 C-283.29193907 503.41730138 -284.27702389 503.95232431 -285.29195976 504.50356007 C-288.107441 506.05937098 -290.82388913 507.70753977 -293.5078125 509.48046875 C-294.42369141 510.08238037 -295.33957031 510.68429199 -296.28320312 511.30444336 C-297.68989258 512.2365564 -297.68989258 512.2365564 -299.125 513.1875 C-300.11693359 513.83662354 -301.10886719 514.48574707 -302.13085938 515.15454102 C-306.78913319 518.20469053 -311.4261358 521.28053967 -316.0234375 524.421875 C-316.7851123 524.93468018 -317.54678711 525.44748535 -318.33154297 525.97583008 C-319.73299572 526.92049317 -321.12598948 527.87788428 -322.50830078 528.8503418 C-326.72217636 531.67169791 -329.79132191 533.02834883 -335 532 C-338.11011126 529.32334425 -339.70992854 527.58656414 -340.45385551 523.51760864 C-340.63184187 520.3768949 -340.64079457 517.27255123 -340.59936523 514.12695312 C-340.60325414 512.919466 -340.60714304 511.71197887 -340.61114979 510.46790123 C-340.61663207 507.11557015 -340.59950879 503.7647465 -340.57259274 500.41261053 C-340.54871564 496.77729705 -340.55340895 493.14199876 -340.55413818 489.50662231 C-340.55071434 482.34530233 -340.5192406 475.18435845 -340.47793877 468.02316701 C-340.44471371 462.17257906 -340.42204668 456.32203501 -340.40640259 450.47137451 C-340.3398386 425.9562427 -340.19751562 401.44200501 -340.02095413 376.92743492 C-339.99983712 373.977245 -339.97914807 371.02705237 -339.95858765 368.07685852 C-339.77066922 341.15911168 -339.54574293 314.24190073 -339.27384061 287.32486844 C-339.21552717 281.52860803 -339.1606726 275.73232784 -339.10857594 269.93600833 C-339.02551703 260.69660681 -338.93287052 251.45740822 -338.8210336 242.21830642 C-338.76981484 237.97866899 -338.72264569 233.73910546 -338.68746185 229.49930191 C-338.44100168 200.57375114 -338.03823435 172.76782657 -316 151 C-309.22296387 144.7097831 -301.52024344 140.20318175 -293.55078125 135.62890625 C-289.04502414 133.04246457 -284.61165916 130.34808409 -280.1875 127.625 C-273.85355921 123.73660681 -267.50030293 119.88272284 -261.125 116.0625 C-260.28670654 115.56016846 -259.44841309 115.05783691 -258.5847168 114.5402832 C-255.26376266 112.55127787 -251.94202167 110.56358949 -248.62011719 108.57617188 C-228.58801749 96.58858995 -208.65126564 84.44427658 -188.71240234 72.30249023 C-178.29334801 65.95869588 -167.86530846 59.62971154 -157.4372406 53.30075073 C-153.75605026 51.06641006 -150.07551779 48.83099011 -146.39552307 46.59468079 C-143.92024691 45.09047776 -141.44479011 43.58657213 -138.96932983 42.08267212 C-137.2629941 41.04587159 -135.55690633 40.008663 -133.85083008 38.97143555 C-120.93184744 31.1236371 -107.96084915 23.36351562 -94.96557617 15.64282227 C-93.61141593 14.8380204 -92.25757556 14.03268006 -90.90405273 13.22680664 C-86.92084904 10.85527065 -82.93337043 8.4912667 -78.93795776 6.14035034 C-77.64233995 5.37797139 -76.34752288 4.61423005 -75.05349731 3.84915161 C-73.18525474 2.74703292 -71.31219872 1.6535924 -69.4375 0.5625 C-67.82488281 -0.38109375 -67.82488281 -0.38109375 -66.1796875 -1.34375 C-45.96830619 -11.87154567 -19.72462336 -10.48506989 0 0 Z " fill="#1694F8" transform="translate(661,265)"/>
<path d="M0 0 C1.65322266 -0.01063477 1.65322266 -0.01063477 3.33984375 -0.02148438 C15.85993319 0.07505249 25.09293177 4.23670896 36.125 9.875 C37.37314826 10.50630445 38.62144164 11.13732207 39.86987305 11.76806641 C48.0948985 15.94037398 56.21791264 20.28571079 64.28735352 24.7512207 C72.30297129 29.17199946 80.42165836 33.37862985 88.5625 37.5625 C89.23456482 37.90807953 89.90662964 38.25365906 90.59906006 38.60971069 C93.23756524 39.96640471 95.87617401 41.32289674 98.51504517 42.67887878 C113.7576134 50.51447009 128.850515 58.62052309 143.90039062 66.81933594 C146.8213652 68.40832309 149.74634685 69.98972852 152.671875 71.5703125 C154.46892843 72.54654662 156.26581196 73.52309357 158.0625 74.5 C158.88161865 74.94077881 159.7007373 75.38155762 160.54467773 75.83569336 C166.94928508 79.33336006 172.51158036 82.71066073 175.875 89.4375 C176.67340613 94.31664857 176.55726021 98.80997825 174.25 103.25 C169.03758451 110.24561026 162.03231381 113.77130334 154.5 117.875 C145.82720731 122.66029538 137.22154857 127.53394475 128.6875 132.5625 C120.19198319 137.55558252 111.61494528 142.35967383 102.94580078 147.04394531 C95.89633798 150.85918699 88.92859414 154.80237763 81.97973633 158.79736328 C75.13868346 162.72672047 68.26322815 166.59151117 61.375 170.4375 C53.37777977 174.90613623 45.39363712 179.39606335 37.4375 183.9375 C36.61636719 184.40542969 35.79523438 184.87335938 34.94921875 185.35546875 C29.95984422 188.21004533 25.02355758 191.14049474 20.11694336 194.13525391 C13.57554518 197.93486383 7.52863862 198.75286357 0.0625 198.9375 C-0.66001953 198.96827637 -1.38253906 198.99905273 -2.12695312 199.03076172 C-13.69327029 199.03332291 -24.0624684 192.03759735 -33.8125 186.5 C-34.99459566 185.83521777 -36.17705829 185.17108771 -37.35986328 184.50756836 C-39.77915245 183.14913578 -42.19640559 181.78719156 -44.61181641 180.421875 C-49.89965519 177.43326189 -55.20039303 174.46767757 -60.5 171.5 C-62.02040894 170.64728516 -62.02040894 170.64728516 -63.5715332 169.77734375 C-71.5292986 165.31805219 -79.51048349 160.90202951 -87.5 156.5 C-125.86648047 135.35892209 -125.86648047 135.35892209 -144.16162109 124.93994141 C-148.36984946 122.54471771 -152.58381455 120.17607553 -156.86328125 117.91015625 C-165.24715336 113.44112533 -171.56218045 109.22708177 -176.625 101 C-177.60233857 95.99113984 -177.55967105 91.66590399 -174.72436523 87.26196289 C-169.06748149 80.6556825 -162.77215912 77.0051175 -155.0625 73.125 C-153.8133596 72.47860215 -152.56516271 71.83037803 -151.31787109 71.18041992 C-148.79602483 69.8700166 -146.26922748 68.57014041 -143.73681641 67.28027344 C-139.49854794 65.12148133 -135.28161557 62.9224863 -131.06567383 60.72045898 C-129.18524287 59.73842173 -127.30356232 58.75877361 -125.4206543 57.78149414 C-119.02562878 54.4572838 -112.69017559 51.03567506 -106.375 47.5625 C-98.18843186 43.06070159 -89.93007391 38.716528 -81.625 34.4375 C-73.27868285 30.13707865 -64.97945311 25.77021657 -56.75 21.25 C-49.5142758 17.28572579 -42.27840072 13.32302607 -35 9.4375 C-33.77531006 8.77004761 -33.77531006 8.77004761 -32.52587891 8.08911133 C-21.79428914 2.40134699 -12.1697649 -0.22218063 0 0 Z " fill="#2F86FA" transform="translate(627.125,419.5625)"/>
<path d="M0 0 C3.51493463 1.72225223 6.79235832 3.69319562 10.125 5.75 C17.1161985 10.00351033 24.28261618 13.89556818 31.5 17.75 C39.82691056 22.19746977 48.10825263 26.70486766 56.3125 31.375 C64.92244551 36.27459055 73.57158997 41.09812879 82.25 45.875 C84.72137851 47.23563287 87.19273962 48.59629734 89.6640625 49.95703125 C90.27609024 50.29398514 90.88811798 50.63093903 91.51869202 50.97810364 C97.89607786 54.49072501 104.26143206 58.02491511 110.625 61.5625 C111.71981689 62.1706958 112.81463379 62.7788916 113.94262695 63.40551758 C119.11056802 66.27744069 124.27641428 69.15301897 129.43695068 72.03822327 C131.85512802 73.3898052 134.27440627 74.73940963 136.69378662 76.08883667 C138.37001871 77.02481946 140.04466273 77.96364458 141.71923828 78.90258789 C146.87087855 81.77529574 152.04703067 84.59638867 157.28515625 87.30859375 C158.19273682 87.77966553 159.10031738 88.2507373 160.03540039 88.73608398 C163.74317172 90.40872856 163.74317172 90.40872856 171 92 C171 116.42 171 140.84 171 166 C159.72421696 163.74484339 159.72421696 163.74484339 154.375 160.9375 C153.78855713 160.63223389 153.20211426 160.32696777 152.59790039 160.01245117 C150.7216561 159.02621703 148.85927236 158.01783925 147 157 C146.38914551 156.66581055 145.77829102 156.33162109 145.14892578 155.98730469 C138.83365521 152.50952142 132.58664647 148.91234887 126.3359375 145.3203125 C124.66164247 144.3590542 122.98715706 143.39812745 121.3125 142.4375 C120.01590454 141.69367065 120.01590454 141.69367065 118.69311523 140.93481445 C111.00659842 136.54183327 103.25845255 132.26396946 95.5 128 C86.20180695 122.88961048 76.94065578 117.72373995 67.7434082 112.43310547 C62.13820669 109.21167537 56.5074701 106.03980922 50.85986328 102.89331055 C45.56569186 99.94228056 40.28194458 96.97284527 35 94 C33.89962402 93.38237793 32.79924805 92.76475586 31.66552734 92.12841797 C28.39464039 90.28576574 25.13372308 88.42656286 21.875 86.5625 C20.39132935 85.73032959 20.39132935 85.73032959 18.87768555 84.88134766 C9.28589302 79.35173692 2.95079279 73.96968208 0 63 C-0.51166224 58.07675909 -0.46913094 53.18458404 -0.390625 48.2421875 C-0.38314715 46.84401262 -0.37746154 45.44582713 -0.37347412 44.04763794 C-0.35833872 40.4011037 -0.31916535 36.75522595 -0.2746582 33.10894775 C-0.23344093 29.37480546 -0.21540717 25.64055512 -0.1953125 21.90625 C-0.15265592 14.60387021 -0.08455615 7.30202774 0 0 Z " fill="#1861F2" transform="translate(448,543)"/>
<path d="M0 0 C2.73059925 1.3549493 5.39525339 2.76822129 8.03515625 4.29296875 C8.83034668 4.75050537 9.62553711 5.20804199 10.44482422 5.67944336 C11.30865723 6.17710205 12.17249023 6.67476074 13.0625 7.1875 C21.46153186 12.00796178 29.90370896 16.74527979 38.375 21.4375 C47.75560547 26.63419291 57.11105578 31.87186725 66.44140625 37.15820312 C73.40837182 41.10422304 80.387865 45.0273083 87.375 48.9375 C88.41269531 49.51822266 89.45039062 50.09894531 90.51953125 50.69726562 C93.67948965 52.46519774 96.83969578 54.23268614 100 56 C104.20866217 58.35357943 108.41696234 60.70780418 112.625 63.0625 C113.65326904 63.63742187 114.68153809 64.21234375 115.7409668 64.8046875 C120.90152026 67.69293865 126.05366028 70.59478408 131.19140625 73.5234375 C143.43686537 80.53124987 143.43686537 80.53124987 155.875 87.1875 C156.86242187 87.69667969 157.84984375 88.20585938 158.8671875 88.73046875 C162.87413991 90.45488499 162.87413991 90.45488499 171 92 C171 116.09 171 140.18 171 165 C163.1097561 165 163.1097561 165 159.765625 163.375 C159.00314453 163.00761719 158.24066406 162.64023437 157.45507812 162.26171875 C152.8545473 159.89740458 148.28865968 157.48125241 143.75 155 C142.70223389 154.42967041 141.65446777 153.85934082 140.57495117 153.27172852 C131.17526264 148.13527507 121.86869849 142.84355263 112.58984375 137.49267578 C108.16905894 134.94472345 103.74140142 132.40881146 99.3125 129.875 C97.99572266 129.12138184 97.99572266 129.12138184 96.65234375 128.35253906 C91.228751 125.25478657 85.78138455 122.20442856 80.3125 119.1875 C71.84941937 114.51670274 63.48675458 109.67760022 55.12451172 104.82910156 C46.2586323 99.69888187 37.33286332 94.68231097 28.35913086 89.74316406 C5.37338725 76.99866932 5.37338725 76.99866932 0.80505371 64.99346924 C-0.7475243 59.22044508 -0.48459427 53.39883303 -0.390625 47.4609375 C-0.38314678 46.08518301 -0.37746134 44.70941772 -0.37347412 43.33364868 C-0.35834166 39.74629301 -0.31917107 36.15960508 -0.2746582 32.57250977 C-0.23343439 28.8986921 -0.21540581 25.22476449 -0.1953125 21.55078125 C-0.15266115 14.36688602 -0.08456522 7.18353725 0 0 Z " fill="#174DEB" transform="translate(448,636)"/>
<path d="M0 0 C0.33 0 0.66 0 1 0 C1.0931181 8.04141327 1.16397484 16.08259727 1.20724869 24.12441826 C1.22802924 27.8595079 1.25616923 31.5942258 1.30175781 35.32910156 C1.34556031 38.94069135 1.36920859 42.551926 1.37950897 46.16376114 C1.38683928 47.53434964 1.40115198 48.90492106 1.42292023 50.27535629 C1.5755933 60.29522414 0.84979237 68.93333776 -6.01171875 76.6875 C-10.72831824 80.97008728 -16.26772587 83.9283869 -21.8125 87 C-23.55594618 87.9854261 -25.29938262 88.97086996 -27.04220581 89.95739746 C-28.84084314 90.97372922 -30.64213227 91.98523053 -32.44384766 92.99609375 C-37.99111848 96.11434749 -43.49287643 99.31157706 -49 102.5 C-51.1638425 103.7490791 -53.32790572 104.99777593 -55.4921875 106.24609375 C-57.1004541 107.17397705 -57.1004541 107.17397705 -58.74121094 108.12060547 C-62.01699566 110.00980166 -65.29355893 111.89764109 -68.5703125 113.78515625 C-79.12731946 119.86821628 -89.67185226 125.97068871 -100.1875 132.125 C-108.92642978 137.23626026 -117.70823724 142.2651261 -126.53417969 147.22460938 C-131.31623533 149.91234615 -136.08453384 152.61983572 -140.828125 155.375 C-141.77083252 155.92075684 -142.71354004 156.46651367 -143.68481445 157.02880859 C-145.45968915 158.05799979 -147.23188126 159.09183802 -149.00073242 160.13134766 C-160.87137422 167 -160.87137422 167 -168 167 C-168 142.91 -168 118.82 -168 94 C-163.71 92.35 -159.42 90.7 -155 89 C-151.43719497 87.20557554 -147.96856188 85.39175677 -144.5 83.4375 C-143.5613208 82.91720215 -142.6226416 82.3969043 -141.65551758 81.86083984 C-134.43716714 77.84601375 -127.26153078 73.75458202 -120.10083008 69.63793945 C-113.32709227 65.74434394 -106.51283658 61.92728081 -99.6875 58.125 C-91.33798624 53.47024568 -83.05319805 48.71963697 -74.8125 43.875 C-66.32205103 38.8861522 -57.75084513 34.0852615 -49.08837891 29.40234375 C-39.29631873 24.10074106 -29.63899018 18.57392456 -20 13 C-19.16903809 12.52191895 -18.33807617 12.04383789 -17.48193359 11.55126953 C-15.10979845 10.18538108 -12.74171983 8.81274576 -10.375 7.4375 C-9.67012451 7.03192871 -8.96524902 6.62635742 -8.23901367 6.20849609 C-5.10925659 4.37752406 -2.5381169 2.56321515 0 0 Z " fill="#4767F9" transform="translate(804,541)"/>
<path d="M0 0 C0.66 0 1.32 0 2 0 C2 0.66 2 1.32 2 2 C2.5787085 2.28520508 3.15741699 2.57041016 3.75366211 2.86425781 C5.84565839 3.92196531 7.89487528 5.02913944 9.94140625 6.171875 C10.68398682 6.58566406 11.42656738 6.99945312 12.19165039 7.42578125 C13.36522095 8.08126953 13.36522095 8.08126953 14.5625 8.75 C19.54714754 11.5296426 24.53429042 14.29966522 29.5625 17 C33.97967966 19.3984686 38.30300846 21.935892 42.625 24.5 C55.00231887 31.83449932 67.60550925 38.77201283 80.17626953 45.76757812 C91.49675546 52.06945025 102.7733077 58.42456169 113.9375 65 C126.43720273 72.35087489 139.16211882 79.25889876 152 86 C152.87817383 86.47550293 153.75634766 86.95100586 154.66113281 87.44091797 C155.49741211 87.88193848 156.33369141 88.32295898 157.1953125 88.77734375 C157.90961426 89.16011475 158.62391602 89.54288574 159.35986328 89.93725586 C163.08175247 91.43544188 167.08343088 92.12965131 171 93 C171 116.76 171 140.52 171 165 C159.70807453 163.87080745 159.70807453 163.87080745 154.875 161.3125 C154.02192261 160.8649939 154.02192261 160.8649939 153.15161133 160.40844727 C146.18683317 156.68628124 139.40027934 152.62398945 132.59692383 148.61743164 C125.14013473 144.22676978 117.6244376 139.95671332 110.0625 135.75 C102.48735387 131.53284273 94.96459905 127.25161783 87.51416016 122.81835938 C81.38209878 119.18693532 75.16377379 115.71680522 68.9375 112.25 C58.44914819 106.40658077 48.05626443 100.41523209 37.703125 94.3359375 C33.97741717 92.14932893 30.23921495 89.98775106 26.484375 87.8515625 C25.61989746 87.35809326 24.75541992 86.86462402 23.86474609 86.35620117 C22.26622303 85.44533458 20.66518645 84.53885709 19.06103516 83.63793945 C9.7209646 78.30150943 3.6936681 72.55036211 0.62411499 61.96856689 C-0.54925245 56.38751244 -0.36395018 50.7967638 -0.29296875 45.1171875 C-0.28660149 43.17406174 -0.28660149 43.17406174 -0.28010559 41.19168091 C-0.26876378 37.78200245 -0.23939184 34.37272 -0.20599365 30.9631958 C-0.17505967 27.47030999 -0.16155093 23.97735891 -0.14648438 20.484375 C-0.11450917 13.65608944 -0.06344572 6.82806384 0 0 Z " fill="#163BE2" transform="translate(448,728)"/>
<path d="M0 0 C0.06979429 7.92832572 0.12295948 15.8565211 0.15543652 23.785079 C0.17103114 27.46742616 0.19215433 31.1495617 0.22631836 34.83178711 C0.25913541 38.39148575 0.27689956 41.95098203 0.28463173 45.51082039 C0.2927971 47.51643174 0.31618017 49.52196273 0.33988953 51.52745056 C0.34163405 61.07877222 -0.43459447 69.19406274 -7.18310547 76.39550781 C-10.64177841 79.44984785 -14.5487393 81.63193032 -18.5625 83.875 C-20.53794574 85.0100942 -22.51319607 86.14552853 -24.48828125 87.28125 C-26.06730225 88.18037109 -26.06730225 88.18037109 -27.67822266 89.09765625 C-31.12656138 91.07248025 -34.55670732 93.07676361 -37.98046875 95.09375 C-38.86931763 95.6172554 -38.86931763 95.6172554 -39.77612305 96.15133667 C-40.98820749 96.86530897 -42.20026376 97.57932911 -43.41229248 98.293396 C-54.46406812 104.7980463 -65.56274783 111.21937755 -76.67822266 117.61450195 C-84.42515026 122.07703153 -92.13218098 126.6032235 -99.82299805 131.16162109 C-109.45203432 136.8671363 -119.11645004 142.51092091 -128.79394531 148.13378906 C-131.6274668 149.78315232 -134.457611 151.43808242 -137.28649902 153.09536743 C-139.65562809 154.48183268 -142.02752914 155.86350614 -144.40002441 157.24420166 C-146.08493207 158.2266372 -147.76662948 159.21457189 -149.44824219 160.20263672 C-150.47852539 160.80092285 -151.50880859 161.39920898 -152.5703125 162.015625 C-153.92793701 162.80888184 -153.92793701 162.80888184 -155.31298828 163.61816406 C-160.11243414 166.08635083 -163.55233182 167 -169 167 C-169 143.24 -169 119.48 -169 95 C-164.05 93.02 -159.1 91.04 -154 89 C-149.85684028 86.78016902 -145.83519177 84.53706887 -141.8125 82.125 C-140.12839127 81.13446388 -138.44426361 80.14395889 -136.75924683 79.15496826 C-135.59695677 78.47207418 -134.43543922 77.78786363 -133.27468872 77.10235596 C-127.46966246 73.6745068 -121.61636141 70.3335181 -115.75686646 66.99990845 C-112.81792669 65.32723112 -109.88150842 63.65014421 -106.9453125 61.97265625 C-106.36638748 61.64192612 -105.78746246 61.31119598 -105.19099426 60.97044373 C-99.07651354 57.47531647 -92.97457475 53.95855746 -86.875 50.4375 C-85.81095947 49.82334229 -84.74691895 49.20918457 -83.65063477 48.57641602 C-78.2556899 45.46112911 -72.86311731 42.34178851 -67.47265625 39.21875 C-56.66916495 32.96515805 -45.84030996 26.76655704 -34.9375 20.6875 C-27.67728976 16.63606613 -20.42998798 12.56735261 -13.25 8.375 C-12.57702881 7.98530029 -11.90405762 7.59560059 -11.21069336 7.1940918 C-8.33616526 5.50203071 -3.11401905 0 0 0 Z " fill="#4A50F5" transform="translate(805,633)"/>
<path d="M0 0 C0.06986457 7.65025001 0.12299481 15.30046646 0.15543652 22.95096397 C0.17101602 26.50437151 0.19211071 30.05755894 0.22631836 33.61083984 C0.26549776 37.70672582 0.27977284 41.80238474 0.29296875 45.8984375 C0.30845261 47.1592514 0.32393646 48.42006531 0.33988953 49.71908569 C0.34193118 60.53579255 -0.89577611 68.92870864 -8.57324219 76.89648438 C-13.00772125 80.7402944 -17.98420337 83.46333947 -23.125 86.25 C-24.86990847 87.2255145 -26.61480444 88.20105392 -28.35836792 89.17897034 C-30.11668064 90.16331139 -31.87854803 91.1410697 -33.640625 92.11865234 C-38.51861855 94.85047053 -43.32331481 97.69933967 -48.125 100.5625 C-55.58635563 104.9892426 -63.06576384 109.38344313 -70.5625 113.75 C-88.58343613 124.24958892 -106.58784844 134.77702611 -124.52706909 145.41574097 C-126.22952193 146.42535578 -127.93226411 147.43448263 -129.63500977 148.44360352 C-134.50043903 151.32785642 -139.36353874 154.2157646 -144.21875 157.1171875 C-145.72913345 158.01568085 -147.2395474 158.91412291 -148.75 159.8125 C-149.3987207 160.20300537 -150.04744141 160.59351074 -150.71582031 160.99584961 C-157.04897403 164.75267639 -161.52784296 167 -169 167 C-169 143.24 -169 119.48 -169 95 C-165.04 93.68 -161.08 92.36 -157 91 C-153.32403991 89.11915161 -149.7974423 87.21507876 -146.25 85.125 C-145.26684814 84.55765137 -144.28369629 83.99030273 -143.27075195 83.40576172 C-140.17392608 81.61489135 -137.08648268 79.80862709 -134 78 C-132.03029664 76.8535673 -130.06024879 75.70772627 -128.08984375 74.5625 C-124.11905123 72.25177192 -120.15217795 69.93448296 -116.1875 67.61328125 C-109.70246931 63.82032612 -103.19681401 60.06358977 -96.6875 56.3125 C-95.59598633 55.68335693 -94.50447266 55.05421387 -93.37988281 54.40600586 C-91.25004256 53.17847433 -89.12016095 51.95101456 -86.99023438 50.72363281 C-76.22321746 44.51730203 -65.46864446 38.29166525 -54.76342773 31.97924805 C-48.52036382 28.29987578 -42.26082628 24.64904698 -36 21 C-33.95179782 19.8047305 -31.90362039 18.6094186 -29.85546875 17.4140625 C-26.19476413 15.278004 -22.53080451 13.14776376 -18.86328125 11.0234375 C-17.34629112 10.14073335 -15.82935978 9.25792814 -14.3125 8.375 C-13.63638672 7.98570312 -12.96027344 7.59640625 -12.26367188 7.1953125 C-9.39696043 5.52183655 -6.75968513 3.80708517 -4.16796875 1.7265625 C-2 0 -2 0 0 0 Z " fill="#4D3AEE" transform="translate(805,725)"/>
<path d="M0 0 C0.33 0 0.66 0 1 0 C1.03178241 20.1041594 1.05135707 40.20831968 1.0625 60.3125 C1.0629343 61.0730302 1.06336861 61.83356039 1.06381607 62.61713696 C1.09222742 113.78836824 0.89689612 164.95532224 0.5 216.125 C0.49402628 216.89680241 0.48805257 217.66860482 0.48189783 218.46379519 C0.33069073 237.97594406 0.17068256 257.48801114 0 277 C-0.75820982 277.41127294 -1.51641964 277.82254587 -2.29760551 278.24628162 C-3.2906576 278.78616057 -4.28370968 279.32603952 -5.30685425 279.88227844 C-6.29193907 280.41730138 -7.27702389 280.95232431 -8.29195976 281.50356007 C-11.107441 283.05937098 -13.82388913 284.70753977 -16.5078125 286.48046875 C-17.42369141 287.08238037 -18.33957031 287.68429199 -19.28320312 288.30444336 C-20.68989258 289.2365564 -20.68989258 289.2365564 -22.125 290.1875 C-23.11693359 290.83662354 -24.10886719 291.48574707 -25.13085938 292.15454102 C-29.78913319 295.20469053 -34.4261358 298.28053967 -39.0234375 301.421875 C-39.7851123 301.93468018 -40.54678711 302.44748535 -41.33154297 302.97583008 C-42.73299572 303.92049317 -44.12598948 304.87788428 -45.50830078 305.8503418 C-49.72217636 308.67169791 -52.79132191 310.02834883 -58 309 C-61.28005057 306.27065094 -62.74226387 304.54264102 -63.45100021 300.30060577 C-63.62485712 296.83104592 -63.62924033 293.39461729 -63.58349609 289.92089844 C-63.58370193 288.57969209 -63.5861007 287.23848458 -63.59050751 285.89728546 C-63.59617578 282.23711674 -63.57071054 278.57773984 -63.53980017 274.91772175 C-63.51211952 271.01270186 -63.51295035 267.10767816 -63.51028442 263.20257568 C-63.50059428 255.65793785 -63.46426562 248.11365808 -63.41864121 240.56916118 C-63.36730995 231.90146244 -63.34403286 223.23375557 -63.32145929 214.56594276 C-63.26442877 193.37698141 -63.14580053 172.18852037 -63 151 C-62.99492495 150.26225216 -62.98984989 149.52450432 -62.98462105 148.76440048 C-62.76355486 116.84170755 -62.4492158 84.92032117 -62 53 C-61.67 53 -61.34 53 -61 53 C-61.00092179 53.80846658 -61.00184359 54.61693316 -61.00279331 55.44989872 C-61.02534605 75.5645074 -61.04164461 95.67911378 -61.05181217 115.79373264 C-61.05686573 125.5228936 -61.06371995 135.25204578 -61.07543945 144.98120117 C-61.12296214 185.41364896 -61.08893004 225.84399797 -60.64847255 266.27448535 C-60.62125103 268.88724772 -60.59755289 271.5000202 -60.57484627 274.11282539 C-60.53906847 278.16377998 -60.49339436 282.2144988 -60.43953824 286.26525235 C-60.42130182 287.74293157 -60.40628992 289.22065463 -60.39473605 290.69840121 C-60.37828151 292.70873372 -60.34842632 294.71894332 -60.31785583 296.72911072 C-60.30472068 297.85087676 -60.29158552 298.9726428 -60.27805233 300.12840176 C-60.00615908 302.9363918 -59.45470259 304.61332356 -58 307 C-53.29452248 307.33271053 -51.03674833 306.81446603 -47.3125 303.9375 C-43.97554811 301.45819896 -40.64862092 299.08210321 -37.125 296.875 C-33.36337678 294.51380793 -29.63551954 292.11010556 -25.92578125 289.66796875 C-25.0239209 289.07580566 -24.12206055 288.48364258 -23.19287109 287.87353516 C-21.3692554 286.67491907 -19.54792517 285.4728179 -17.72900391 284.26708984 C-16.88901855 283.71617676 -16.0490332 283.16526367 -15.18359375 282.59765625 C-14.42618896 282.09758057 -13.66878418 281.59750488 -12.88842773 281.08227539 C-11 280 -11 280 -9 280 C-9 279.34 -9 278.68 -9 278 C-7.02 277.34 -5.04 276.68 -3 276 C-3.00343666 274.41355431 -3.00343666 274.41355431 -3.00694275 272.7950592 C-3.06329042 243.90970265 -2.91343415 215.02918224 -2.62768555 186.14526367 C-2.57191498 180.4896117 -2.52194575 174.83392345 -2.47328281 169.17820644 C-2.43405775 164.72275447 -2.39106784 160.26734439 -2.34705925 155.81193733 C-2.32702025 153.72596512 -2.30825557 151.63998017 -2.29092598 149.55398369 C-2.20960297 139.92837345 -2.07461306 130.32982516 -1.5 120.71972656 C-0.7923378 108.77545136 -0.7689437 96.82521124 -0.68359375 84.86328125 C-0.66296798 82.40178626 -0.64197029 79.94029436 -0.62062073 77.47880554 C-0.56597963 71.06589292 -0.51632 64.6529515 -0.46777344 58.23999023 C-0.41712933 51.6697337 -0.36166952 45.09951789 -0.30664062 38.52929688 C-0.19977039 25.68623309 -0.09800982 12.84313431 0 0 Z " fill="#0E51B6" transform="translate(384,488)"/>
<path d="M0 0 C0.80646973 0.42635742 1.61293945 0.85271484 2.44384766 1.29199219 C14.19889642 7.54042308 25.75440168 14.10120362 37.18310547 20.92578125 C40.10250787 22.65184556 43.05072757 24.32557436 46 26 C45.34 26.99 44.68 27.98 44 29 C43.49210938 28.67386719 42.98421875 28.34773438 42.4609375 28.01171875 C38.40063539 25.43411123 34.35189823 23.06715166 30 21 C30 20.34 30 19.68 30 19 C29.44183594 18.89429688 28.88367188 18.78859375 28.30859375 18.6796875 C25.56901368 17.87311063 23.48892872 16.62796509 21.0625 15.125 C20.22847656 14.61195313 19.39445313 14.09890625 18.53515625 13.5703125 C16.79776831 12.49414924 15.06081057 11.41729123 13.32421875 10.33984375 C11.09889382 8.91539435 11.09889382 8.91539435 8.75 8.4375 C8.1725 8.293125 7.595 8.14875 7 8 C6.67 7.34 6.34 6.68 6 6 C3.97536745 5.34786708 3.97536745 5.34786708 2 5 C2 4.34 2 3.68 2 3 C1.21753906 2.80664062 0.43507813 2.61328125 -0.37109375 2.4140625 C-1.38300781 2.15367187 -2.39492188 1.89328125 -3.4375 1.625 C-4.44683594 1.36976563 -5.45617187 1.11453125 -6.49609375 0.8515625 C-9 0 -9 0 -10 -2 C-12.21378699 -2.65513985 -12.21378699 -2.65513985 -14.8125 -3.0625 C-19.88829551 -3.96969536 -19.88829551 -3.96969536 -21.90332031 -4.51635742 C-41.23236409 -8.97500154 -59.5718612 -1.2802023 -76 8 C-77.55847656 8.87978516 -77.55847656 8.87978516 -79.1484375 9.77734375 C-80.21320313 10.38707031 -81.27796875 10.99679687 -82.375 11.625 C-83.37273437 12.19476563 -84.37046875 12.76453125 -85.3984375 13.3515625 C-87.94143571 14.82066651 -87.94143571 14.82066651 -89.4765625 16.5234375 C-91.68128216 18.66031963 -94.23958135 19.67460043 -97 21 C-99.32224397 22.29843032 -101.63391747 23.60704804 -103.9375 24.9375 C-105.11328125 25.61328125 -106.2890625 26.2890625 -107.46484375 26.96484375 C-108.0479834 27.30104736 -108.63112305 27.63725098 -109.23193359 27.98364258 C-110.99624056 28.99783892 -112.76553007 30.00293339 -114.53515625 31.0078125 C-117.88896768 32.93615954 -121.20158817 34.91602188 -124.5 36.9375 C-125.07113525 37.2873999 -125.64227051 37.6372998 -126.23071289 37.99780273 C-129.06032867 39.74596981 -131.80055027 41.53614168 -134.4375 43.5625 C-138.78609469 46.80477715 -143.81368013 48.94127297 -148.6953125 51.25390625 C-151.84656762 52.91893112 -154.24135987 54.76541765 -157 57 C-159.61947518 58.6652636 -162.30810337 60.2052957 -165 61.75 C-171.60342294 65.57630919 -178.1110739 69.51840225 -184.55859375 73.6015625 C-187 75 -187 75 -189 75 C-187.50197931 70.97685447 -185.29599401 69.66710684 -181.63671875 67.56640625 C-180.53271729 66.92413086 -179.42871582 66.28185547 -178.29125977 65.62011719 C-177.70386017 65.28475952 -177.11646057 64.94940186 -176.51126099 64.60388184 C-174.04121419 63.19346573 -171.58455146 61.76049314 -169.12724304 60.32803345 C-167.87812624 59.59988242 -166.62837678 58.87281563 -165.37800598 58.14682007 C-159.87675657 54.94752089 -154.45826228 51.62409558 -149.0625 48.25 C-139.99832051 42.60008388 -130.86062157 37.08337955 -121.68994141 31.60839844 C-117.81117354 29.28916421 -113.9389712 26.95904938 -110.06616211 24.62988281 C-105.83298336 22.08634193 -101.5950081 19.55083743 -97.35742188 17.01464844 C-94.44838071 15.26905451 -91.54395871 13.51619847 -88.64146423 11.75976562 C-86.24128897 10.30946913 -83.83700728 8.86607515 -81.43191528 7.4239502 C-79.74610798 6.41024209 -78.06521873 5.38836903 -76.38452148 4.36621094 C-52.6000558 -9.86035227 -25.0549469 -13.31852399 0 0 Z " fill="#0EBBE4" transform="translate(661,265)"/>
<path d="M0 0 C0.33 0 0.66 0 1 0 C1.09163784 44.57034939 1.16208049 89.14068878 1.20426132 133.71111387 C1.2092639 138.97798232 1.21444121 144.24485058 1.21972656 149.51171875 C1.2207758 150.56021818 1.22182505 151.60871762 1.22290608 152.68898976 C1.24029176 169.64637504 1.27181931 186.60370586 1.30861118 203.56105888 C1.34607176 220.97236381 1.36824666 238.38364029 1.37635398 255.79498386 C1.38183114 266.53103362 1.3991045 277.26692938 1.43166587 288.00293171 C1.45287696 295.37388625 1.45918517 302.74476166 1.45400551 310.11574447 C1.45145396 314.36279095 1.45525085 318.60956912 1.4768219 322.85656738 C1.49648033 326.75577013 1.4971471 330.65452756 1.48359558 334.55375206 C1.4819241 335.95376736 1.48683396 337.35381201 1.49953273 338.75377071 C1.61891703 352.744973 -0.91009504 365.81073121 -8 378 C-8.39832031 378.71285156 -8.79664063 379.42570312 -9.20703125 380.16015625 C-10.12036338 381.78349922 -11.0571319 383.39363213 -12 385 C-13.21386936 381.35839192 -12.6674695 380.66834531 -11.0625 377.3125 C-10.68222656 376.50425781 -10.30195312 375.69601562 -9.91015625 374.86328125 C-9.60980469 374.24839844 -9.30945313 373.63351562 -9 373 C-8.34 373 -7.68 373 -7 373 C-6.896875 372.030625 -6.79375 371.06125 -6.6875 370.0625 C-6.15365232 366.24046006 -4.97374251 362.78708842 -3.69921875 359.15625 C-2.82847563 356.47105333 -2.35850962 353.79637504 -2 351 C-1.34 351 -0.68 351 0 351 C0 235.17 0 119.34 0 0 Z " fill="#6C4CD4" transform="translate(945,444)"/>
<path d="M0 0 C4.33649281 1.56641375 8.18589669 3.76402024 12.125 6.125 C12.84655273 6.55312988 13.56810547 6.98125977 14.31152344 7.42236328 C16.87636533 8.94487458 19.43815511 10.47245151 22 12 C26.4151155 14.6276137 30.83185162 17.25248957 35.25 19.875 C35.83127655 20.22014648 36.4125531 20.56529297 37.01144409 20.92089844 C45.36977938 25.88126279 53.76968119 30.76188982 62.2199707 35.56420898 C70.83293338 40.46171121 79.39472504 45.44486965 87.94140625 50.45703125 C92.06142214 52.87313536 96.19542671 55.26273229 100.33984375 57.63671875 C102.35163512 58.79935352 104.36335656 59.96210929 106.375 61.125 C107.314646 61.65730225 108.25429199 62.18960449 109.22241211 62.73803711 C110.08487549 63.23956299 110.94733887 63.74108887 111.8359375 64.2578125 C112.59438965 64.6923877 113.3528418 65.12696289 114.13427734 65.57470703 C116.29335729 67.22410624 117.08397501 68.45616151 118 71 C117.92516642 75.11584702 117.51038613 77.3301182 115 80.625 C111.29007791 83.56202166 107.42490784 86.2598677 103 88 C101.515 87.505 101.515 87.505 100 87 C104.75 84 104.75 84 107 84 C107 83.34 107 82.68 107 82 C107.94875 81.54625 108.8975 81.0925 109.875 80.625 C113.00313679 79.19761746 113.00313679 79.19761746 115 77 C115.34216235 72.34805286 115.34216235 72.34805286 114 68 C111.66156757 66.7223892 109.3356889 65.52838117 106.9375 64.375 C106.27427734 64.05015625 105.61105469 63.7253125 104.92773438 63.390625 C103.28778753 62.58834885 101.64422508 61.7934712 100 61 C100 60.34 100 59.68 100 59 C99.319375 58.9175 98.63875 58.835 97.9375 58.75 C94.1253093 57.77667472 91.35929671 56.04192545 88 54 C88 53.34 88 52.68 88 52 C86.35 51.67 84.7 51.34 83 51 C83 50.34 83 49.68 83 49 C81.9275 48.71125 80.855 48.4225 79.75 48.125 C76.90599636 47.27179891 74.56491017 46.4363497 72 45 C72 44.34 72 43.68 72 43 C71.195625 42.773125 70.39125 42.54625 69.5625 42.3125 C65.08714261 40.66368412 61.11278682 38.39455588 57 36 C57 35.34 57 34.68 57 34 C55.88625 33.814375 55.88625 33.814375 54.75 33.625 C52.19858515 33.04513299 50.2732427 32.26291261 48 31 C48 30.34 48 29.68 48 29 C46.35 28.67 44.7 28.34 43 28 C43 27.34 43 26.68 43 26 C42.32066406 25.92007812 41.64132812 25.84015625 40.94140625 25.7578125 C37.17630386 24.78778612 34.19512146 22.9206975 30.9375 20.875 C29.59936241 20.05272747 28.26081549 19.23112073 26.921875 18.41015625 C26.25994141 18.00168457 25.59800781 17.59321289 24.91601562 17.17236328 C22.19797226 15.50925877 19.44499666 13.90913343 16.6875 12.3125 C15.26050781 11.47912109 15.26050781 11.47912109 13.8046875 10.62890625 C11.89918691 9.52222973 9.98745637 8.42622527 8.0703125 7.33984375 C7.16023437 6.81519531 6.25015625 6.29054688 5.3125 5.75 C4.50425781 5.29109375 3.69601562 4.8321875 2.86328125 4.359375 C1 3 1 3 0 0 Z " fill="#2AB5F0" transform="translate(707,292)"/>
<path d="M0 0 C0.33 0 0.66 0 1 0 C1 25.41 1 50.82 1 77 C1.66 77 2.32 77 3 77 C3.02736995 79.79173516 3.04701454 82.58319304 3.0625 85.375 C3.07087891 86.14972656 3.07925781 86.92445313 3.08789062 87.72265625 C3.1043416 91.70379162 2.97230808 95.57906989 2.49801636 99.53346252 C1.8819956 105.49049151 1.88927355 111.39510077 1.93408203 117.37866211 C1.93875488 118.57499268 1.94342773 119.77132324 1.94824219 121.00390625 C1.96140236 124.25343862 1.9788931 127.50291804 1.99740076 130.75242305 C2.01494031 134.16359137 2.02423205 137.57477833 2.03366089 140.98597717 C2.0669577 152.58129187 2.10894331 164.17653176 2.17138672 175.77172852 C2.20587883 182.19227055 2.22970351 188.61275964 2.24159515 195.03338438 C2.24836628 198.42548206 2.26082684 201.81735327 2.28662491 205.20936394 C2.31297349 208.98204248 2.32098478 212.75434081 2.32470703 216.52709961 C2.3370639 217.65074417 2.34942078 218.77438873 2.3621521 219.93208313 C2.35947327 220.95669647 2.35679443 221.98130981 2.35403442 223.03697205 C2.35809862 223.92826278 2.36216282 224.81955351 2.36635017 225.73785305 C2 228 2 228 -1 231 C-0.67 154.77 -0.34 78.54 0 0 Z " fill="#0B79DF" transform="translate(323,465)"/>
<path d="M0 0 C2.375 1.5 2.375 1.5 4 3 C3.34 4.32 2.68 5.64 2 7 C1.505 5.02 1.505 5.02 1 3 C-7.93547564 3 -13.83077152 7.14602112 -21 12 C-22.54163579 13.04171236 -24.08329869 14.0833846 -25.625 15.125 C-26.68267578 15.84042969 -26.68267578 15.84042969 -27.76171875 16.5703125 C-31.14807158 18.73332321 -34.68442838 20.59547485 -38.22265625 22.49609375 C-40.96413712 23.98058058 -43.67932642 25.49636572 -46.375 27.0625 C-47.14585937 27.50722656 -47.91671875 27.95195312 -48.7109375 28.41015625 C-49.46632813 28.93480469 -50.22171875 29.45945312 -51 30 C-51.8586113 30.57723312 -52.7172226 31.15446625 -53.60185242 31.74919128 C-57.86677598 36.13828901 -56.69686299 42.91753903 -56.65942383 48.6027832 C-56.66788006 50.00253221 -56.67852557 51.40226946 -56.69119263 52.80198669 C-56.71932798 56.59512233 -56.71686955 60.38769228 -56.70889878 64.18090081 C-56.70577301 68.14747467 -56.73081008 72.11386859 -56.75285339 76.08036804 C-56.7903026 83.58841891 -56.80244189 91.09628865 -56.8054778 98.6044237 C-56.81016769 107.15343645 -56.84308873 115.70226764 -56.87837565 124.25120032 C-56.95031942 141.83412019 -56.98682838 159.41693991 -57 177 C-57.33 177 -57.66 177 -58 177 C-58.23372693 158.21552858 -58.41000336 139.43135266 -58.51812172 120.64572811 C-58.56966051 111.92291054 -58.63990731 103.200997 -58.75439453 94.47875977 C-58.85414911 86.87529966 -58.91860062 79.27249426 -58.94088495 71.66839796 C-58.95390999 67.64261377 -58.98445421 63.61870228 -59.05730057 59.59351921 C-59.12536639 55.80163928 -59.14608268 52.01239589 -59.13107681 48.21996307 C-59.1338201 46.83112037 -59.15361309 45.44218636 -59.19205475 44.05387306 C-59.46763374 33.58472392 -59.46763374 33.58472392 -55.83160019 29.65860176 C-53.29145265 27.85296696 -50.78248391 26.39577149 -48 25 C-46.72207035 24.22826436 -45.44849291 23.44916247 -44.18359375 22.65625 C-42.93741889 21.93313433 -41.68862501 21.2145168 -40.4375 20.5 C-35.09181804 17.41994292 -29.79947772 14.27314462 -24.5546875 11.0234375 C-23.44037354 10.33830078 -22.32605957 9.65316406 -21.17797852 8.94726562 C-18.96375368 7.58387495 -16.75568698 6.21042339 -14.55444336 4.82617188 C-13.53229736 4.20033203 -12.51015137 3.57449219 -11.45703125 2.9296875 C-10.54928955 2.36491699 -9.64154785 1.80014648 -8.70629883 1.21826172 C-5.55441677 -0.2005828 -3.42155398 -0.33742432 0 0 Z " fill="#685DFE" transform="translate(941,440)"/>
<path d="M0 0 C1.09332642 0.0453186 1.09332642 0.0453186 2.20874023 0.09155273 C6.67188759 0.38355352 9.54953769 1.23614946 13.1875 3.8125 C15.17992489 4.8275089 17.17824195 5.83123444 19.1875 6.8125 C18.8575 7.4725 18.5275 8.1325 18.1875 8.8125 C9.1875 5.8125 9.1875 5.8125 6.3359375 4.73046875 C-4.18678021 1.66243071 -15.53186862 3.54446812 -25.078125 8.51171875 C-28.71353787 10.51793558 -32.26896637 12.64907947 -35.8125 14.8125 C-36.88757813 15.46734375 -37.96265625 16.1221875 -39.0703125 16.796875 C-41.19606687 18.10262093 -43.31845776 19.41385794 -45.4375 20.73046875 C-49.80175821 23.42277156 -54.20286284 26.05144117 -58.61303711 28.66772461 C-61.51367652 30.39686823 -64.3256042 32.17217708 -67.06640625 34.140625 C-68.42572266 34.96820313 -68.42572266 34.96820313 -69.8125 35.8125 C-70.8025 35.4825 -71.7925 35.1525 -72.8125 34.8125 C-67.66964286 30.38392857 -67.66964286 30.38392857 -63.8125 29.8125 C-63.8125 29.1525 -63.8125 28.4925 -63.8125 27.8125 C-62.1625 27.4825 -60.5125 27.1525 -58.8125 26.8125 C-58.8125 26.1525 -58.8125 25.4925 -58.8125 24.8125 C-57.1625 24.4825 -55.5125 24.1525 -53.8125 23.8125 C-53.8125 23.1525 -53.8125 22.4925 -53.8125 21.8125 C-48.0625 18.8125 -48.0625 18.8125 -45.8125 18.8125 C-45.4825 17.8225 -45.1525 16.8325 -44.8125 15.8125 C-41.23918659 14.0595538 -37.72403372 12.59480674 -33.8125 11.8125 C-33.8125 11.1525 -33.8125 10.4925 -33.8125 9.8125 C-31.87879769 8.80517601 -29.94039694 7.80686712 -28 6.8125 C-26.92105469 6.255625 -25.84210937 5.69875 -24.73046875 5.125 C-21.8125 3.8125 -21.8125 3.8125 -18.8125 3.8125 C-18.8125 3.1525 -18.8125 2.4925 -18.8125 1.8125 C-12.498738 -0.06456438 -6.52312602 -0.33557914 0 0 Z " fill="#17BDEE" transform="translate(631.8125,325.1875)"/>
<path d="M0 0 C0.33 0 0.66 0 1 0 C1.00808685 0.98083557 1.01617371 1.96167114 1.02450562 2.972229 C1.10196909 12.21283725 1.18970893 21.45329829 1.28752708 30.69371414 C1.33748642 35.44437994 1.38381654 40.19502355 1.421875 44.94580078 C1.45873232 49.53001959 1.50509358 54.11405253 1.55806351 58.69811249 C1.57660506 60.4475758 1.59171392 62.19707896 1.60334396 63.94660187 C1.6202105 66.39591023 1.64924631 68.84479313 1.68115234 71.29394531 C1.68331253 72.01827255 1.68547272 72.74259979 1.68769836 73.48887634 C1.74863468 77.14728186 1.9907498 79.88717938 4 83 C8.70547752 83.33271053 10.96325167 82.81446603 14.6875 79.9375 C18.02445189 77.45819896 21.35137908 75.08210321 24.875 72.875 C28.63662322 70.51380793 32.36448046 68.11010556 36.07421875 65.66796875 C36.9760791 65.07580566 37.87793945 64.48364258 38.80712891 63.87353516 C40.6307446 62.67491907 42.45207483 61.4728179 44.27099609 60.26708984 C45.11098145 59.71617676 45.9509668 59.16526367 46.81640625 58.59765625 C47.57381104 58.09758057 48.33121582 57.59750488 49.11157227 57.08227539 C51 56 51 56 53 56 C53 55.34 53 54.68 53 54 C54.98 53.34 56.96 52.68 59 52 C57.86627186 55.40118442 57.44036408 55.62637189 54.4921875 57.34765625 C53.76032227 57.78287598 53.02845703 58.2180957 52.27441406 58.66650391 C51.48260742 59.12718262 50.69080078 59.58786133 49.875 60.0625 C48.2198686 61.04829127 46.56624378 62.03661605 44.9140625 63.02734375 C44.08422852 63.52476074 43.25439453 64.02217773 42.39941406 64.53466797 C38.95285377 66.63949651 35.59637981 68.86536797 32.25 71.125 C31.64720215 71.528396 31.0444043 71.93179199 30.42333984 72.34741211 C27.97500605 73.98743328 25.53133137 75.63261918 23.10742188 77.30859375 C21.2472656 78.59448639 19.3747772 79.86055687 17.5 81.125 C16.4171875 81.87007812 15.334375 82.61515625 14.21875 83.3828125 C10.42553403 85.28862732 8.19053654 85.61683131 4 85 C1.81939697 83.46234131 1.81939697 83.46234131 0 81 C-0.37421307 78.23350129 -0.50754576 75.87165366 -0.45410156 73.11035156 C-0.45468567 72.31972824 -0.45526978 71.52910492 -0.45587158 70.71452332 C-0.45308899 68.10610767 -0.42198983 65.49884053 -0.390625 62.890625 C-0.38316321 61.08030827 -0.37746998 59.26998346 -0.37347412 57.45965576 C-0.35821288 52.69848265 -0.31892691 47.93779884 -0.2746582 43.17681885 C-0.23371603 38.31716531 -0.21546536 33.4574326 -0.1953125 28.59765625 C-0.15243309 19.06488937 -0.08417585 9.5324854 0 0 Z " fill="#1550E0" transform="translate(322,712)"/>
<path d="M0 0 C0.33 0 0.66 0 1 0 C1.33 50.82 1.66 101.64 2 154 C1.01 154 0.02 154 -1 154 C-0.505 77.77 -0.505 77.77 0 0 Z " fill="#6E46FC" transform="translate(883,617)"/>
<path d="M0 0 C2.9375 0.5 2.9375 0.5 4.8125 1.625 C6.50041147 4.43818579 6.38901041 6.27492565 5.9375 9.5 C4.3125 12.375 4.3125 12.375 1.9375 14.5 C-1.29903093 15.02841321 -3.10495644 15.07452613 -5.9375 13.375 C-7.62541147 10.56181421 -7.51401041 8.72507435 -7.0625 5.5 C-5.03824263 1.91862157 -4.11198807 0.67134499 0 0 Z " fill="#06071A" transform="translate(778.0625,680.5)"/>
<path d="M0 0 C3.375 0.4375 3.375 0.4375 5.375 2.4375 C5.7505195 5.81717547 5.51654582 8.06281989 4.3125 11.25 C2.375 13.4375 2.375 13.4375 -1.125 14.4375 C-4.625 14.4375 -4.625 14.4375 -6.5625 13.375 C-8.13345535 10.51031671 -8.07614908 8.65999344 -7.625 5.4375 C-5.46628682 1.46546775 -4.54701848 0.54877809 0 0 Z " fill="#06071B" transform="translate(754.625,785.5625)"/>
<path d="M0 0 C1.9375 1.0625 1.9375 1.0625 3 3 C2.92892425 6.90916627 2.54416836 9.24205122 0.25 12.4375 C-2.47295257 14.32843929 -3.75165866 14.58303563 -7 14 C-8.8125 12.9375 -8.8125 12.9375 -10 11 C-10.50030235 7.06905293 -10.5996142 4.8994213 -8.375 1.5625 C-5.31881548 -0.44814771 -3.59350675 -0.53520313 0 0 Z " fill="#07071C" transform="translate(781,773)"/>
<path d="M0 0 C2.9375 0.5 2.9375 0.5 4.8125 1.625 C6.52103009 4.47255015 6.45937626 6.23827339 5.9375 9.5 C3.59173618 12.58300388 2.1707693 14.26509156 -1.6875 15 C-4.0625 14.5 -4.0625 14.5 -5.875 13.375 C-7.64955868 10.57306524 -7.51833783 8.75598452 -7.0625 5.5 C-5.03824263 1.91862157 -4.11198807 0.67134499 0 0 Z " fill="#05071A" transform="translate(754.0625,693.5)"/>
<path d="M0 0 C2.375 0.5 2.375 0.5 4.1875 1.625 C5.96205868 4.42693476 5.83083783 6.24401548 5.375 9.5 C3.75 12.375 3.75 12.375 1.375 14.5 C-1.86153093 15.02841321 -3.66745644 15.07452613 -6.5 13.375 C-8.20853009 10.52744985 -8.14687626 8.76172661 -7.625 5.5 C-5.27923618 2.41699612 -3.8582693 0.73490844 0 0 Z " fill="#060A1E" transform="translate(754.625,601.5)"/>
<path d="M0 0 C2.8125 0.9375 2.8125 0.9375 4.8125 2.9375 C5.31134697 6.6788523 5.05752854 8.50398796 3.1875 11.8125 C0.8125 13.9375 0.8125 13.9375 -2.25 14.4375 C-5.1875 13.9375 -5.1875 13.9375 -7.0625 12.8125 C-8.77103009 9.96494985 -8.70937626 8.19922661 -8.1875 4.9375 C-5.60874147 1.37274556 -4.49505989 -0.08813843 0 0 Z " fill="#050819" transform="translate(779.1875,589.0625)"/>
<path d="M0 0 C2.3125 0.9375 2.3125 0.9375 4.3125 2.9375 C4.77648201 7.03600772 4.69680032 9.26853277 2.625 12.875 C0.3125 14.9375 0.3125 14.9375 -2.25 15.4375 C-4.6875 14.9375 -4.6875 14.9375 -6.5 13.875 C-8.41248821 10.75462449 -8.18033529 8.51055585 -7.6875 4.9375 C-4.01908647 -0.09346713 -4.01908647 -0.09346713 0 0 Z " fill="#05081A" transform="translate(731.6875,614.0625)"/>
<path d="M0 0 C2 2 2 2 2.375 5.3125 C1.93881217 9.60168034 1.24278198 11.18389986 -2 14 C-5.125 14.5 -5.125 14.5 -8 14 C-10.54393252 10.18410122 -10.57737956 7.4700353 -10 3 C-7.8297183 -1.08523614 -4.19706062 -0.38155097 0 0 Z " fill="#040414" transform="translate(734,799)"/>
<path d="M0 0 C3.4375 0.375 3.4375 0.375 5.4375 2.375 C6.11136609 9.33828294 6.11136609 9.33828294 3.8125 12.875 C0.7701044 14.79651301 -1.02791114 14.91287222 -4.5625 14.375 C-7.03592266 10.66486601 -6.94753486 8.76439738 -6.5625 4.375 C-4.93449229 0.64015878 -4.10308283 0.43190346 0 0 Z " fill="#040614" transform="translate(730.5625,706.625)"/>
<path d="M0 0 C2.375 1.5 2.375 1.5 4 3 C3.34 4.32 2.68 5.64 2 7 C1.505 5.02 1.505 5.02 1 3 C-7.93547564 3 -13.83077152 7.14602112 -21 12 C-22.54163579 13.04171236 -24.08329869 14.0833846 -25.625 15.125 C-26.68267578 15.84042969 -26.68267578 15.84042969 -27.76171875 16.5703125 C-31.14649832 18.7323183 -34.6777769 20.59616402 -38.22265625 22.48046875 C-41.8111335 24.44378471 -45.26191998 26.60333029 -48.7109375 28.80078125 C-51.15224846 30.07976156 -53.28623151 30.59245526 -56 31 C-51.71135777 27.33749953 -47.09039857 24.54020274 -42.25 21.6875 C-40.47092289 20.63484313 -38.69229958 19.58141905 -36.9140625 18.52734375 C-35.96563477 17.96515137 -35.01720703 17.40295898 -34.04003906 16.82373047 C-30.78633095 14.87181916 -27.5600936 12.87922371 -24.3359375 10.87890625 C-23.22057617 10.1928833 -22.10521484 9.50686035 -20.95605469 8.80004883 C-18.7655488 7.45193406 -16.58108038 6.09395079 -14.40332031 4.7253418 C-12.8927002 3.80168823 -12.8927002 3.80168823 -11.3515625 2.859375 C-10.01859131 2.03131348 -10.01859131 2.03131348 -8.65869141 1.18652344 C-5.5343599 -0.20780633 -3.38762099 -0.32800495 0 0 Z " fill="#6165E3" transform="translate(941,440)"/>
<path d="M0 0 C0.66 0 1.32 0 2 0 C2.06943354 11.94346072 2.12277746 23.88687363 2.15543652 35.83049488 C2.17110923 41.37608265 2.19237688 46.92153258 2.22631836 52.46704102 C2.25885442 57.81624905 2.27684091 63.16532431 2.28463173 68.51462364 C2.29018558 70.55803201 2.30103057 72.60143291 2.31719017 74.64478493 C2.33888791 77.50138828 2.34197013 80.35743916 2.34057617 83.21411133 C2.35675491 84.4883345 2.35675491 84.4883345 2.3732605 85.78829956 C2.34215648 91.65784352 2.34215648 91.65784352 -1 95 C-0.67 63.65 -0.34 32.3 0 0 Z " fill="#0976FD" transform="translate(323,601)"/>
<path d="M0 0 C4.55144465 1.62551595 8.50182698 3.96120317 12.625 6.4375 C14.12590644 7.3300927 15.62722548 8.22199189 17.12890625 9.11328125 C17.91539551 9.58072754 18.70188477 10.04817383 19.51220703 10.52978516 C23.84543386 13.09059889 28.20420028 15.60717342 32.5625 18.125 C33.40184082 18.61025146 34.24118164 19.09550293 35.10595703 19.59545898 C37.07033193 20.73083728 39.03499833 21.86570693 41 23 C40.01 23.66 39.02 24.32 38 25 C37.05640625 24.43152344 36.1128125 23.86304688 35.140625 23.27734375 C29.00918265 19.58820173 22.87358238 15.90962222 16.6875 12.3125 C15.26050781 11.47912109 15.26050781 11.47912109 13.8046875 10.62890625 C11.89918691 9.52222973 9.98745637 8.42622527 8.0703125 7.33984375 C7.16023437 6.81519531 6.25015625 6.29054688 5.3125 5.75 C4.50425781 5.29109375 3.69601562 4.8321875 2.86328125 4.359375 C1 3 1 3 0 0 Z " fill="#1DB9E7" transform="translate(707,292)"/>
<path d="M0 0 C0.33 0 0.66 0 1 0 C1.00808685 0.98083557 1.01617371 1.96167114 1.02450562 2.972229 C1.10196909 12.21283725 1.18970893 21.45329829 1.28752708 30.69371414 C1.33748642 35.44437994 1.38381654 40.19502355 1.421875 44.94580078 C1.45873232 49.53001959 1.50509358 54.11405253 1.55806351 58.69811249 C1.57660506 60.4475758 1.59171392 62.19707896 1.60334396 63.94660187 C1.6202105 66.39591023 1.64924631 68.84479313 1.68115234 71.29394531 C1.68331253 72.01827255 1.68547272 72.74259979 1.68769836 73.48887634 C1.74782089 77.09842457 1.80887143 80.0332512 4 83 C4.99 83.33 5.98 83.66 7 84 C2.25 83.25 2.25 83.25 0 81 C-0.18788205 78.40991691 -0.25187766 75.92769067 -0.22705078 73.33740234 C-0.22734283 72.54707108 -0.22763489 71.75673981 -0.22793579 70.94245911 C-0.22653962 68.32350786 -0.21096505 65.7048392 -0.1953125 63.0859375 C-0.19158339 61.27275752 -0.18873594 59.45957553 -0.18673706 57.64639282 C-0.17909257 52.86892149 -0.15943712 48.09157133 -0.1373291 43.31414795 C-0.1168882 38.44121948 -0.10773911 33.56827147 -0.09765625 28.6953125 C-0.07619197 19.13015503 -0.04204623 9.56508758 0 0 Z " fill="#0F5CFB" transform="translate(322,712)"/>
<path d="M0 0 C3.47909371 -0.05883728 6.95805674 -0.09387399 10.4375 -0.125 C11.41138672 -0.14175781 12.38527344 -0.15851563 13.38867188 -0.17578125 C21.78672089 -0.23195549 29.0599794 0.77765828 36.6875 4.4375 C37.6053125 4.87320312 38.523125 5.30890625 39.46875 5.7578125 C40.3040625 6.16773438 41.139375 6.57765625 42 7 C42.6703125 7.32742188 43.340625 7.65484375 44.03125 7.9921875 C45.35980362 8.65019755 46.68114918 9.32275228 48 10 C48 10.66 48 11.32 48 12 C46.68 12 45.36 12 44 12 C44 11.34 44 10.68 44 10 C43.21753906 9.80664062 42.43507813 9.61328125 41.62890625 9.4140625 C40.61699219 9.15367187 39.60507812 8.89328125 38.5625 8.625 C37.55316406 8.36976563 36.54382813 8.11453125 35.50390625 7.8515625 C33 7 33 7 32 5 C29.78621301 4.34486015 29.78621301 4.34486015 27.1875 3.9375 C22.11368146 3.03065799 22.11368146 3.03065799 20.11157227 2.49072266 C17.9298766 1.98370354 15.90728255 1.79536413 13.671875 1.68359375 C12.47304688 1.62075195 12.47304688 1.62075195 11.25 1.55664062 C10.0125 1.49766602 10.0125 1.49766602 8.75 1.4375 C7.90953125 1.39431641 7.0690625 1.35113281 6.203125 1.30664062 C4.13559329 1.20091457 2.06781719 1.09998705 0 1 C0 0.67 0 0.34 0 0 Z " fill="#0FC6EE" transform="translate(619,258)"/>
<path d="M0 0 C-0.1484375 1.84765625 -0.1484375 1.84765625 -1 4 C-3.4765625 5.30859375 -3.4765625 5.30859375 -6.625 6.4375 C-10.35366542 7.87160208 -13.62935866 9.19940259 -16.8125 11.625 C-20.10786895 14.08037294 -23.18257117 15.51544434 -27 17 C-27.969375 17.391875 -28.93875 17.78375 -29.9375 18.1875 C-30.618125 18.455625 -31.29875 18.72375 -32 19 C-32.66 18.34 -33.32 17.68 -34 17 C-33.13721436 16.5560791 -32.27442871 16.1121582 -31.38549805 15.65478516 C-28.18095388 14.00538368 -24.97762609 12.35363194 -21.7746582 10.70117188 C-20.38892081 9.9866637 -19.00285553 9.27279106 -17.61645508 8.55957031 C-15.62234079 7.53357672 -13.62942157 6.50529421 -11.63671875 5.4765625 C-11.01786301 5.15877838 -10.39900726 4.84099426 -9.76139832 4.51358032 C-1.03415869 0 -1.03415869 0 0 0 Z " fill="#1890E7" transform="translate(564,445)"/>
<path d="M0 0 C0 0.66 0 1.32 0 2 C-3.85831875 5.6642613 -7.64147506 7.60791281 -13 8 C-13 8.66 -13 9.32 -13 10 C-15.08095279 11.39818654 -17.14712323 12.68337637 -19.3125 13.9375 C-24.62484361 16.88116922 -24.62484361 16.88116922 -29 21 C-29.72197162 23.60611077 -29.72197162 23.60611077 -30 26 C-30.66 26 -31.32 26 -32 26 C-31.91100094 21.55004709 -31.43323851 19.48607248 -28.4375 16.125 C-23.33411559 12.16987709 -17.49964041 9.22044973 -11.83984375 6.1484375 C-9.3410243 4.78634809 -6.97142567 3.34224013 -4.62890625 1.7265625 C-2 0 -2 0 0 0 Z " fill="#363ADE" transform="translate(466,882)"/>
<path d="M0 0 C2.29965163 1.23688835 4.58894675 2.48842071 6.875 3.75 C7.52597656 4.09804688 8.17695312 4.44609375 8.84765625 4.8046875 C11.51973018 6.29223381 13.66631126 7.52779895 15.44921875 10.05078125 C16.37816054 13.33831282 15.86116123 15.72758732 15 19 C11.49834342 23.59592426 6.37100696 26.88780625 1 29 C0.01 28.67 -0.98 28.34 -2 28 C2.75 25 2.75 25 5 25 C5 24.34 5 23.68 5 23 C6.423125 22.319375 6.423125 22.319375 7.875 21.625 C11.00313679 20.19761746 11.00313679 20.19761746 13 18 C13.34216235 13.34805286 13.34216235 13.34805286 12 9 C10.01111799 7.89855315 7.9837464 6.86581405 5.9375 5.875 C4.28041016 5.06675781 4.28041016 5.06675781 2.58984375 4.2421875 C1.73519531 3.83226562 0.88054688 3.42234375 0 3 C0 2.01 0 1.02 0 0 Z " fill="#31A4E9" transform="translate(809,351)"/>
<path d="M0 0 C0.66 0.33 1.32 0.66 2 1 C2 1.66 2 2.32 2 3 C1.21625 3.2475 0.4325 3.495 -0.375 3.75 C-3.44837014 5.21350959 -3.77118421 5.92796053 -5 9 C-5.53625 9.721875 -6.0725 10.44375 -6.625 11.1875 C-8.95710874 15.95772241 -8.65968203 21.02095391 -7 26 C-7.66 26.33 -8.32 26.66 -9 27 C-11.50136065 22.29744197 -12.64307725 18.67789124 -11.84765625 13.34765625 C-9.79251661 7.65577181 -4.93213972 3.28809315 0 0 Z " fill="#0D80E2" transform="translate(462,498)"/>
<path d="M0 0 C2.0625 0.4375 2.0625 0.4375 4 1 C2.9330188 1.62044189 2.9330188 1.62044189 1.84448242 2.25341797 C-1.3750806 4.12630271 -4.59379912 6.00063402 -7.8125 7.875 C-8.93205078 8.52597656 -10.05160156 9.17695313 -11.20507812 9.84765625 C-12.81479492 10.78544922 -12.81479492 10.78544922 -14.45703125 11.7421875 C-15.44678955 12.3182373 -16.43654785 12.89428711 -17.45629883 13.48779297 C-19.3366589 14.6056498 -21.17985164 15.78656776 -23 17 C-28.26180564 17.70157408 -30.85352775 16.15921695 -35 13 C-34.34 12.67 -33.68 12.34 -33 12 C-32.4225 12.309375 -31.845 12.61875 -31.25 12.9375 C-28.27716931 14.34133672 -26.27188867 14.26897735 -23 14 C-20.32521231 12.7212488 -20.32521231 12.7212488 -17.8125 10.875 C-13.04796152 7.65942671 -8.19461437 4.85380421 -3.1171875 2.1640625 C-1.0781976 1.17117967 -1.0781976 1.17117967 0 0 Z " fill="#309BE4" transform="translate(796,385)"/>
<path d="M0 0 C0.99 0.33 1.98 0.66 3 1 C-1.83468086 4.8803023 -6.28088104 7.54894902 -12 10 C-14.05057026 11.46469304 -16.01819354 13.01428477 -18 14.5703125 C-20.84690262 16.60540305 -23.7318789 17.77445459 -27 19 C-27.66 18.34 -28.32 17.68 -29 17 C-27.99582031 16.443125 -26.99164063 15.88625 -25.95703125 15.3125 C-24.57520415 14.54223451 -23.19371853 13.77135622 -21.8125 13 C-21.09231689 12.59861816 -20.37213379 12.19723633 -19.63012695 11.78369141 C-16.08501724 9.79261844 -12.58004892 7.76773126 -9.1484375 5.5859375 C-8.56215576 5.21339844 -7.97587402 4.84085937 -7.37182617 4.45703125 C-5.76667749 3.42586457 -4.17020082 2.38123567 -2.57421875 1.3359375 C-1.72472656 0.89507812 -0.87523437 0.45421875 0 0 Z " fill="#0BA2E8" transform="translate(445,354)"/>
<path d="M0 0 C0.99 0.66 1.98 1.32 3 2 C2.35562988 2.3623877 1.71125977 2.72477539 1.04736328 3.09814453 C-1.92757609 4.77231363 -4.90129189 6.44864494 -7.875 8.125 C-8.88820313 8.69476562 -9.90140625 9.26453125 -10.9453125 9.8515625 C-16.71431179 13.10586979 -22.41878789 16.43044311 -28.04345703 19.92919922 C-30 21 -30 21 -32 21 C-32 20.34 -32 19.68 -32 19 C-31.38125 18.71125 -30.7625 18.4225 -30.125 18.125 C-27.86674235 17.06279958 -27.86674235 17.06279958 -26 15 C-24.35580437 14.08347203 -22.68561879 13.21290934 -21 12.375 C-20.113125 11.92898438 -19.22625 11.48296875 -18.3125 11.0234375 C-16 10 -16 10 -14 10 C-14 9.34 -14 8.68 -14 8 C-9.25 6 -9.25 6 -7 6 C-7 5.34 -7 4.68 -7 4 C-4.69 3.34 -2.38 2.68 0 2 C0 1.34 0 0.68 0 0 Z " fill="#4D80EB" transform="translate(781,534)"/>
<path d="M0 0 C0.99 0.33 1.98 0.66 3 1 C0.89227258 4.16159113 0.60455142 4.39082795 -2.75 5.4375 C-6.6281609 6.77672103 -9.60826623 8.66818303 -13 11 C-17.21079213 13.29300562 -21.50841299 15.31565487 -26 17 C-26.66 16.34 -27.32 15.68 -28 15 C-27.25838623 14.61666504 -26.51677246 14.23333008 -25.75268555 13.83837891 C-22.99560977 12.41220839 -20.23935463 10.98446762 -17.48364258 9.55566406 C-15.70651976 8.63485501 -13.92845994 7.71585505 -12.15039062 6.796875 C-11.03212891 6.21679688 -9.91386719 5.63671875 -8.76171875 5.0390625 C-7.73006592 4.50490723 -6.69841309 3.97075195 -5.63549805 3.42041016 C-2.88619004 1.99168566 -2.88619004 1.99168566 0 0 Z " fill="#178BE5" transform="translate(528,463)"/>
<path d="M0 0 C4.23139201 1.57671641 8.16194318 3.604083 12.125 5.75 C13.11197876 6.28125488 13.11197876 6.28125488 14.11889648 6.82324219 C15.45118397 7.54108833 16.7828172 8.26015014 18.11376953 8.98046875 C19.81149743 9.898112 21.51294526 10.80886502 23.21484375 11.71875 C27.97539386 14.27860685 32.57617105 16.89136344 37 20 C36.01 20.495 36.01 20.495 35 21 C32.86328125 20.14453125 32.86328125 20.14453125 30.3125 18.8125 C28.97832031 18.11640625 28.97832031 18.11640625 27.6171875 17.40625 C26.75351562 16.9421875 25.88984375 16.478125 25 16 C24.28070313 15.6184375 23.56140625 15.236875 22.8203125 14.84375 C18.14017857 12.28035714 18.14017857 12.28035714 17 10 C15.02253397 9.26919734 13.01927511 8.60578253 11 8 C10.01 7.67 9.02 7.34 8 7 C8 6.34 8 5.68 8 5 C7.13375 4.814375 7.13375 4.814375 6.25 4.625 C3.97664233 3.99351176 2.0746471 3.11141809 0 2 C0 1.34 0 0.68 0 0 Z " fill="#0644E2" transform="translate(452,732)"/>
<path d="M0 0 C0.66 0 1.32 0 2 0 C1.42780514 12.93160387 -3.1529712 23.15245999 -10 34 C-11.21386936 30.35839192 -10.6674695 29.66834531 -9.0625 26.3125 C-8.49208984 25.10013672 -8.49208984 25.10013672 -7.91015625 23.86328125 C-7.45962891 22.94095703 -7.45962891 22.94095703 -7 22 C-6.34 22 -5.68 22 -5 22 C-4.8453125 20.5459375 -4.8453125 20.5459375 -4.6875 19.0625 C-4.15365232 15.24046006 -2.97374251 11.78708842 -1.69921875 8.15625 C-0.82847563 5.47105333 -0.35850962 2.79637504 0 0 Z " fill="#6E2DE2" transform="translate(943,795)"/>
<path d="M0 0 C1.98 0.99 1.98 0.99 4 2 C3.01 3.485 3.01 3.485 2 5 C1.87720206 7.59672714 1.86516219 10.09520674 1.9375 12.6875 C2.05545581 20.51681714 1.8497056 28.30288288 1.5 36.125 C1.45222412 37.19838623 1.40444824 38.27177246 1.35522461 39.37768555 C1.23983116 41.91861218 1.12162957 44.45936537 1 47 C0.67 47 0.34 47 0 47 C0 31.49 0 15.98 0 0 Z " fill="#386BF3" transform="translate(636,635)"/>
<path d="M0 0 C0.78375 0.04125 1.5675 0.0825 2.375 0.125 C-1.04767272 2.976772 -4.50722596 5.35109842 -8.36328125 7.578125 C-9.42998047 8.196875 -10.49667969 8.815625 -11.59570312 9.453125 C-12.69849609 10.08734375 -13.80128906 10.7215625 -14.9375 11.375 C-16.05962891 12.0246875 -17.18175781 12.674375 -18.33789062 13.34375 C-21.0981604 14.94118272 -23.86056475 16.53479032 -26.625 18.125 C-26.625 17.135 -26.625 16.145 -26.625 15.125 C-19.875 11.125 -19.875 11.125 -17.625 11.125 C-17.625 10.465 -17.625 9.805 -17.625 9.125 C-16.635 9.125 -15.645 9.125 -14.625 9.125 C-14.625 8.465 -14.625 7.805 -14.625 7.125 C-13.57699219 6.61839844 -13.57699219 6.61839844 -12.5078125 6.1015625 C-11.59773437 5.65554688 -10.68765625 5.20953125 -9.75 4.75 C-8.39261719 4.08871094 -8.39261719 4.08871094 -7.0078125 3.4140625 C-0.76424051 0.03639241 -0.76424051 0.03639241 0 0 Z " fill="#13B1EB" transform="translate(557.625,360.875)"/>
<path d="M0 0 C3.24964548 4.87446822 2.33300751 10.60144418 2.31567383 16.30615234 C2.31251104 18.49236769 2.33598905 20.67723292 2.36132812 22.86328125 C2.36360094 24.25260246 2.3643047 25.64192731 2.36328125 27.03125 C2.36626221 28.29517578 2.36924316 29.55910156 2.37231445 30.86132812 C2 34 2 34 0.47729492 35.93554688 C-0.0102124 36.28681641 -0.49771973 36.63808594 -1 37 C-1.2170641 24.65146452 -0.56691997 12.33201708 0 0 Z " fill="#0966FA" transform="translate(323,659)"/>
<path d="M0 0 C-4.24127977 3.60888219 -8.78394034 6.42798365 -13.5625 9.25 C-14.69461914 9.93835938 -14.69461914 9.93835938 -15.84960938 10.640625 C-16.58115234 11.07375 -17.31269531 11.506875 -18.06640625 11.953125 C-18.72584229 12.34661133 -19.38527832 12.74009766 -20.06469727 13.14550781 C-22 14 -22 14 -26 14 C-20.85714286 9.57142857 -20.85714286 9.57142857 -17 9 C-17 8.34 -17 7.68 -17 7 C-15.35 6.67 -13.7 6.34 -12 6 C-12 5.34 -12 4.68 -12 4 C-10.35 3.67 -8.7 3.34 -7 3 C-7 2.34 -7 1.68 -7 1 C-4.53721199 -0.231394 -2.7204945 -0.07159196 0 0 Z " fill="#11B3E6" transform="translate(585,346)"/>
<path d="M0 0 C-17.25806452 13 -17.25806452 13 -22 13 C-20.61890773 9.67095254 -19.27883802 8.21556568 -16.19140625 6.38671875 C-15.44439453 5.94392578 -14.69738281 5.50113281 -13.92773438 5.04492188 C-13.14720703 4.59697266 -12.36667969 4.14902344 -11.5625 3.6875 C-10.78583984 3.22021484 -10.00917969 2.75292969 -9.20898438 2.27148438 C-8.46068359 1.83513672 -7.71238281 1.39878906 -6.94140625 0.94921875 C-6.25763916 0.55049561 -5.57387207 0.15177246 -4.86938477 -0.2590332 C-3 -1 -3 -1 0 0 Z " fill="#0AB1EE" transform="translate(471,341)"/>
<path d="M0 0 C0.33 0.99 0.66 1.98 1 3 C0.51120361 3.28721924 0.02240723 3.57443848 -0.48120117 3.87036133 C-2.71677212 5.18417289 -4.95213764 6.49833358 -7.1875 7.8125 C-7.95642578 8.26431641 -8.72535156 8.71613281 -9.51757812 9.18164062 C-13.3550868 11.43802984 -17.18802883 13.70059454 -21 16 C-21.99 15.34 -22.98 14.68 -24 14 C-23.41508789 13.68248779 -22.83017578 13.36497559 -22.22753906 13.0378418 C-19.56657216 11.59098722 -16.90827291 10.13929781 -14.25 8.6875 C-13.32960938 8.18798828 -12.40921875 7.68847656 -11.4609375 7.17382812 C-10.57148437 6.68720703 -9.68203125 6.20058594 -8.765625 5.69921875 C-7.94868164 5.25408936 -7.13173828 4.80895996 -6.29003906 4.3503418 C-4.06026594 3.03553634 -2.03738879 1.59349987 0 0 Z " fill="#5068E3" transform="translate(802,543)"/>
<path d="M0 0 C0.66 0.66 1.32 1.32 2 2 C1.07380859 2.00386719 1.07380859 2.00386719 0.12890625 2.0078125 C-6.16798044 2.29534157 -9.9587742 3.7476404 -14.9921875 7.52734375 C-16.92583053 8.94559943 -18.82941933 9.99257803 -21 11 C-21.66 10.34 -22.32 9.68 -23 9 C-20.67916988 7.47695524 -18.34643995 5.98266509 -16 4.5 C-15.35160156 4.07074219 -14.70320313 3.64148438 -14.03515625 3.19921875 C-9.11978659 0.13319609 -5.79210501 -0.64911522 0 0 Z " fill="#3338D9" transform="translate(489,872)"/>
<path d="M0 0 C0.99 0.33 1.98 0.66 3 1 C2.01 2.485 2.01 2.485 1 4 C0.75878651 6.89659349 0.62700558 9.7053355 0.5859375 12.60546875 C0.56657135 13.44467361 0.5472052 14.28387848 0.5272522 15.14851379 C0.46748787 17.82807258 0.42108388 20.5076744 0.375 23.1875 C0.3368173 25.00457599 0.29776539 26.82163394 0.2578125 28.63867188 C0.16178897 33.09230132 0.07774641 37.54601551 0 42 C-0.33 42 -0.66 42 -1 42 C-1.02464638 36.17928378 -1.0428343 30.35859766 -1.05493164 24.5378418 C-1.05997267 22.55606559 -1.06680538 20.57429311 -1.07543945 18.5925293 C-1.08751515 15.75047891 -1.09323045 12.90847753 -1.09765625 10.06640625 C-1.10281754 9.17474258 -1.10797882 8.28307892 -1.11329651 7.36439514 C-1.11349177 5.24259399 -1.0621003 3.1208922 -1 1 C-0.67 0.67 -0.34 0.34 0 0 Z " fill="#646CFC" transform="translate(884,471)"/>
<path d="M0 0 C3.95659039 0.71316321 7.1708008 2.54328688 10.6875 4.4375 C11.84636719 5.05496094 13.00523437 5.67242187 14.19921875 6.30859375 C17 8 17 8 18 10 C20.02463255 10.65213292 20.02463255 10.65213292 22 11 C21.67 11.66 21.34 12.32 21 13 C16.26525903 11.3003494 12.03832889 8.86340973 7.6875 6.375 C6.94693359 5.95476562 6.20636719 5.53453125 5.44335938 5.1015625 C3.62730989 4.07051505 1.81343467 3.03563954 0 2 C0 1.34 0 0.68 0 0 Z " fill="#23ADE1" transform="translate(669,344)"/>
<path d="M0 0 C1.65 0 3.3 0 5 0 C5 0.66 5 1.32 5 2 C5.78375 2.144375 6.5675 2.28875 7.375 2.4375 C10 3 10 3 12 4 C12 4.66 12 5.32 12 6 C12.94875 6.28875 13.8975 6.5775 14.875 6.875 C18 8 18 8 20 10 C21.31747324 10.69748583 22.64914193 11.36959957 24 12 C21.52193392 12.91453269 20.40535344 13.16890522 17.92529297 12.13549805 C17.20486816 11.68215088 16.48444336 11.22880371 15.7421875 10.76171875 C14.95199219 10.27123047 14.16179687 9.78074219 13.34765625 9.27539062 C12.12369141 8.48938477 12.12369141 8.48938477 10.875 7.6875 C10.05128906 7.17509766 9.22757812 6.66269531 8.37890625 6.13476562 C2.35178571 2.35178571 2.35178571 2.35178571 0 0 Z " fill="#3537DA" transform="translate(438,913)"/>
<path d="M0 0 C8.22492784 3.98121507 16.16219859 8.30287788 24 13 C23.34 13.66 22.68 14.32 22 15 C18.51240249 13.07739006 15.03653809 11.13448838 11.5625 9.1875 C10.07266602 8.36668945 10.07266602 8.36668945 8.55273438 7.52929688 C7.60849609 6.99755859 6.66425781 6.46582031 5.69140625 5.91796875 C4.81685791 5.43094482 3.94230957 4.9439209 3.04125977 4.44213867 C1 3 1 3 0 0 Z " fill="#3D3DDF" transform="translate(503,881)"/>
<path d="M0 0 C5 2 5 2 8 4 C8 4.66 8 5.32 8 6 C6.02 5.34 4.04 4.68 2 4 C2.02320313 5.18078125 2.04640625 6.3615625 2.0703125 7.578125 C2.08907497 9.13541033 2.10727466 10.69270252 2.125 12.25 C2.15013672 13.41595703 2.15013672 13.41595703 2.17578125 14.60546875 C2.18222656 15.35957031 2.18867188 16.11367188 2.1953125 16.890625 C2.20578613 17.58188477 2.21625977 18.27314453 2.22705078 18.98535156 C2 21 2 21 0 25 C0 16.75 0 8.5 0 0 Z " fill="#045AF0" transform="translate(449,637)"/>
<path d="M0 0 C5.13458095 1.47159329 9.34685934 3.75327902 13.875 6.5 C14.56335938 6.90347656 15.25171875 7.30695313 15.9609375 7.72265625 C17.67818898 8.75505148 19.34458175 9.87111428 21 11 C21 11.66 21 12.32 21 13 C16.26525903 11.3003494 12.03832889 8.86340973 7.6875 6.375 C6.94693359 5.95476562 6.20636719 5.53453125 5.44335938 5.1015625 C3.62730989 4.07051505 1.81343467 3.03563954 0 2 C0 1.34 0 0.68 0 0 Z " fill="#28A9E5" transform="translate(692,357)"/>
<path d="M0 0 C1.32 0 2.64 0 4 0 C4 0.66 4 1.32 4 2 C5.65 2.33 7.3 2.66 9 3 C9 3.66 9 4.32 9 5 C14.445 6.485 14.445 6.485 20 8 C20 8.99 20 9.98 20 11 C12.46997792 8.90146926 6.3250039 5.6107505 0 1 C0 0.67 0 0.34 0 0 Z " fill="#275DE9" transform="translate(591,696)"/>
<path d="M0 0 C-1.05749024 3.15187025 -1.98950922 3.99370836 -4.8984375 5.73828125 C-6.04570313 6.25777344 -7.19296875 6.77726562 -8.375 7.3125 C-9.51710938 7.84488281 -10.65921875 8.37726563 -11.8359375 8.92578125 C-15.0934054 10.03171171 -15.89051879 9.97850513 -19 9 C-16.2118978 7.4933028 -13.41896042 5.99580196 -10.625 4.5 C-9.8309375 4.07074219 -9.036875 3.64148438 -8.21875 3.19921875 C-7.45820312 2.79316406 -6.69765625 2.38710938 -5.9140625 1.96875 C-4.8614624 1.40317383 -4.8614624 1.40317383 -3.78759766 0.82617188 C-2 0 -2 0 0 0 Z " fill="#1C92E4" transform="translate(583,435)"/>
<path d="M0 0 C3.53644012 0.68232492 6.30268991 2.12715859 9.4375 3.875 C10.36433594 4.38804687 11.29117188 4.90109375 12.24609375 5.4296875 C13.60927734 6.20699219 13.60927734 6.20699219 15 7 C15.93972656 7.51820313 16.87945313 8.03640625 17.84765625 8.5703125 C18.55792969 9.04210937 19.26820313 9.51390625 20 10 C20 10.66 20 11.32 20 12 C15.67578354 10.41555427 11.73557417 8.282196 7.75 6 C7.11320313 5.64421875 6.47640625 5.2884375 5.8203125 4.921875 C1.12118676 2.24237351 1.12118676 2.24237351 0 0 Z " fill="#2D9AE0" transform="translate(733,381)"/>
<path d="M0 0 C5.28408749 0.51784057 9.30041927 3.2624991 13.75 5.9375 C14.52988281 6.39318359 15.30976562 6.84886719 16.11328125 7.31835938 C21.86811514 10.73623029 21.86811514 10.73623029 23 13 C18.59655076 11.35933262 14.51459479 9.2657023 10.375 7.0625 C9.70726562 6.71509766 9.03953125 6.36769531 8.3515625 6.00976562 C5.17247943 4.32167251 2.32711006 2.79078237 0 0 Z " fill="#2154E6" transform="translate(582,713)"/>
<path d="M0 0 C-1.40438887 3.39393978 -2.86383098 5.08345227 -6 7 C-9.80873382 8.53970091 -12.89528047 9.24145409 -17 9 C-13.94746898 6.59124922 -10.78648153 4.67456202 -7.375 2.8125 C-6.41335938 2.28269531 -5.45171875 1.75289063 -4.4609375 1.20703125 C-2 0 -2 0 0 0 Z " fill="#1D9AF0" transform="translate(600,426)"/>
<path d="M0 0 C0.33 0 0.66 0 1 0 C1 6.27 1 12.54 1 19 C1.66 19 2.32 19 3 19 C2.34 22.96 1.68 26.92 1 31 C0.67 31 0.34 31 0 31 C0 20.77 0 10.54 0 0 Z " fill="#0C80EA" transform="translate(323,523)"/>
<path d="M0 0 C0.66 0.33 1.32 0.66 2 1 C-0.38610141 3.58950678 -2.96192267 5.43766255 -5.9375 7.3125 C-7.21947266 8.14201172 -7.21947266 8.14201172 -8.52734375 8.98828125 C-11 10 -11 10 -13.31640625 9.16796875 C-13.87199219 8.78253906 -14.42757813 8.39710938 -15 8 C-12.54665445 6.63603538 -10.08808766 5.28365831 -7.625 3.9375 C-6.92632812 3.54755859 -6.22765625 3.15761719 -5.5078125 2.75585938 C-3.70389816 1.77584822 -1.85416518 0.88124929 0 0 Z " fill="#1686DF" transform="translate(494,481)"/>
<path d="M0 0 C4.2002771 0.90523213 7.57966461 2.90282094 11.25 5.0625 C11.8996875 5.43955078 12.549375 5.81660156 13.21875 6.20507812 C14.81505091 7.13234115 16.40787529 8.06558456 18 9 C18 9.66 18 10.32 18 11 C13.85967154 9.45614871 10.06446947 7.48971062 6.1875 5.375 C5.59001953 5.05015625 4.99253906 4.7253125 4.37695312 4.390625 C2.91662865 3.59620849 1.45812509 2.79844624 0 2 C0 1.34 0 0.68 0 0 Z " fill="#2BA4E1" transform="translate(714,370)"/>
<path d="M0 0 C-5.34539835 4.50062149 -10.23467327 7.21470545 -17 9 C-12.90717886 4.37907291 -6.42502595 -2.14167532 0 0 Z " fill="#0BAFF0" transform="translate(448,355)"/>
<path d="M0 0 C3.38891322 0.68886787 6.18011613 1.98716486 9.25 3.5625 C10.14203125 4.01753906 11.0340625 4.47257812 11.953125 4.94140625 C12.96632813 5.46541016 12.96632813 5.46541016 14 6 C13.67 6.66 13.34 7.32 13 8 C8 6.33333333 3 4.66666667 -2 3 C-1.34 2.01 -0.68 1.02 0 0 Z " fill="#1DADDD" transform="translate(637,326)"/>
<path d="M0 0 C-2.62214328 1.50519387 -5.24744208 3.00431319 -7.875 4.5 C-8.62136719 4.92925781 -9.36773438 5.35851562 -10.13671875 5.80078125 C-10.85214844 6.20683594 -11.56757812 6.61289062 -12.3046875 7.03125 C-12.96452637 7.40830078 -13.62436523 7.78535156 -14.30419922 8.17382812 C-16 9 -16 9 -18 9 C-18 8.34 -18 7.68 -18 7 C-17.38125 6.71125 -16.7625 6.4225 -16.125 6.125 C-13.86674235 5.06279958 -13.86674235 5.06279958 -12 3 C-10.73516633 2.22522094 -9.43955697 1.49954204 -8.125 0.8125 C-7.44695313 0.44769531 -6.76890625 0.08289063 -6.0703125 -0.29296875 C-3.59925456 -1.13685835 -2.45614419 -0.71453216 0 0 Z " fill="#477BE3" transform="translate(767,546)"/>
<path d="M0 0 C0.99 0.33 1.98 0.66 3 1 C0.82460004 2.52066794 -1.36257769 4.01555394 -3.5625 5.5 C-4.17158203 5.92925781 -4.78066406 6.35851562 -5.40820312 6.80078125 C-9.74011058 9.68871955 -12.64553958 10.49616622 -18 10 C-18 9.67 -18 9.34 -18 9 C-17.071875 8.814375 -16.14375 8.62875 -15.1875 8.4375 C-10.34831874 7.11142579 -6.52774223 4.20299354 -2.453125 1.36328125 C-1.64359375 0.91339844 -0.8340625 0.46351563 0 0 Z " fill="#104AD5" transform="translate(344,787)"/>
<path d="M0 0 C0 0.99 0 1.98 0 3 C-3.47451095 5.66648514 -6.89215164 7.52538777 -11 9 C-11.928125 9.37125 -12.85625 9.7425 -13.8125 10.125 C-14.534375 10.41375 -15.25625 10.7025 -16 11 C-16 10.34 -16 9.68 -16 9 C-10.72 6.03 -5.44 3.06 0 0 Z " fill="#526FE9" transform="translate(768,563)"/>
<path d="M0 0 C0.66 0.33 1.32 0.66 2 1 C-0.38370917 4.57556376 -3.09426764 6.37463312 -7 8 C-10.4375 8.25 -10.4375 8.25 -13 8 C-10.23145402 5.85090038 -7.42165474 3.98221172 -4.375 2.25 C-3.59898437 1.80140625 -2.82296875 1.3528125 -2.0234375 0.890625 C-1.35570312 0.59671875 -0.68796875 0.3028125 0 0 Z " fill="#1483DD" transform="translate(477,490)"/>
<path d="M0 0 C-10.10526316 8 -10.10526316 8 -14 8 C-12.72726053 4.04036611 -10.31700287 2.62270446 -6.8203125 0.75 C-4.46705106 -0.21958411 -2.51260766 -0.3045585 0 0 Z " fill="#09B6EE" transform="translate(486,332)"/>
<path d="M0 0 C0.66 0.33 1.32 0.66 2 1 C-0.33333333 3.33333333 -2.66666667 5.66666667 -5 8 C-5.64767793 10.57061311 -5.64767793 10.57061311 -6 13 C-6.66 13 -7.32 13 -8 13 C-7.92928 9.46400002 -7.80836985 6.8958137 -5.375 4.19921875 C-3.62779084 2.72324972 -1.86215167 1.32733004 0 0 Z " fill="#2E33CF" transform="translate(442,895)"/>
<path d="M0 0 C2.96783129 1.45668783 5.86415313 3.01232086 8.75 4.625 C9.94882812 5.29402344 9.94882812 5.29402344 11.171875 5.9765625 C11.77515625 6.31429687 12.3784375 6.65203125 13 7 C12.01 7.33 11.02 7.66 10 8 C8.824375 7.2265625 8.824375 7.2265625 7.625 6.4375 C5.05125774 4.62720756 5.05125774 4.62720756 2.1875 5.8125 C1.465625 6.204375 0.74375 6.59625 0 7 C0 4.69 0 2.38 0 0 Z " fill="#076EE8" transform="translate(449,544)"/>
<path d="M0 0 C0.66 0 1.32 0 2 0 C0.5243763 3.85674376 -1.47006893 5.21823735 -5 7.25 C-5.886875 7.77078125 -6.77375 8.2915625 -7.6875 8.828125 C-10 10 -10 10 -12 10 C-12 9.34 -12 8.68 -12 8 C-10.02 7.34 -8.04 6.68 -6 6 C-6 5.34 -6 4.68 -6 4 C-5.01 4 -4.02 4 -3 4 C-3 3.34 -3 2.68 -3 2 C-2.01 2 -1.02 2 0 2 C0 1.34 0 0.68 0 0 Z " fill="#4F81E7" transform="translate(796,525)"/>
<path d="M0 0 C0.66 0.33 1.32 0.66 2 1 C1.505 1.680625 1.01 2.36125 0.5 3.0625 C-1.30365111 6.59465009 -1.23021353 9.08636991 -1 13 C-1.99 12.34 -2.98 11.68 -4 11 C-4.61829563 7.02524236 -4.31867116 5.4580898 -2 2.125 C-1.34 1.42375 -0.68 0.7225 0 0 Z " fill="#0E1033" transform="translate(751,694)"/>
<path d="M0 0 C5.99932374 1.8331267 11.44920563 4.07321751 17 7 C15 8 15 8 13.046875 7.58203125 C8.1385249 5.93756701 4.11394024 4.16456942 0 1 C0 0.67 0 0.34 0 0 Z " fill="#2936D6" transform="translate(598,885)"/>
<path d="M0 0 C0 0.99 0 1.98 0 3 C-1.40751221 3.86916887 -2.8264521 4.71985149 -4.25 5.5625 C-5.03890625 6.03816406 -5.8278125 6.51382813 -6.640625 7.00390625 C-9 8 -9 8 -13 7 C-8.71 4.69 -4.42 2.38 0 0 Z " fill="#513DDD" transform="translate(766,748)"/>
<path d="M0 0 C1.1875 1.5 1.1875 1.5 2 4 C1.27101296 6.78824238 0.1843275 9.37665092 -1 12 C-1.66 12 -2.32 12 -3 12 C-2.25749403 7.91621717 -1.17076699 3.98060777 0 0 Z " fill="#0887D8" transform="translate(329,439)"/>
<path d="M0 0 C0.99 0.66 1.98 1.32 3 2 C1.95199219 2.50660156 1.95199219 2.50660156 0.8828125 3.0234375 C-0.02726562 3.46945312 -0.93734375 3.91546875 -1.875 4.375 C-2.77992188 4.81585938 -3.68484375 5.25671875 -4.6171875 5.7109375 C-7.09534472 6.90502699 -7.09534472 6.90502699 -9 9 C-10.32 8.67 -11.64 8.34 -13 8 C-8.71 5.36 -4.42 2.72 0 0 Z " fill="#0C98E3" transform="translate(383,391)"/>
<path d="M0 0 C0 0.99 0 1.98 0 3 C-3.63 4.98 -7.26 6.96 -11 9 C-11 8.01 -11 7.02 -11 6 C-10.01 6 -9.02 6 -8 6 C-7.67 5.01 -7.34 4.02 -7 3 C-3.4375 1.3125 -3.4375 1.3125 0 0 Z " fill="#662EE9" transform="translate(783,925)"/>
<path d="M0 0 C5.28137429 0.51525603 8.57221156 2.25477117 13 5 C12.67 5.66 12.34 6.32 12 7 C7.69235185 5.43358249 3.93828536 3.31663844 0 1 C0 0.67 0 0.34 0 0 Z " fill="#1CAEE0" transform="translate(652,335)"/>
<path d="M0 0 C7 9.1 7 9.1 7 13 C5.81836949 11.78521149 4.65517165 10.55247592 3.5 9.3125 C2.8503125 8.62800781 2.200625 7.94351563 1.53125 7.23828125 C-0.27813784 4.59343628 -0.3077917 3.13837611 0 0 Z " fill="#0B62EA" transform="translate(451,609)"/>
<path d="M0 0 C4.49797113 1.68673918 8.72886302 3.81673892 13 6 C10.34501768 7.0169313 9.30844625 7.13022151 6.640625 6.00390625 C5.85171875 5.52824219 5.0628125 5.05257813 4.25 4.5625 C3.45078125 4.08941406 2.6515625 3.61632812 1.828125 3.12890625 C1.22484375 2.75636719 0.6215625 2.38382812 0 2 C0 1.34 0 0.68 0 0 Z " fill="#4888E6" transform="translate(761,482)"/>
<path d="M0 0 C0.66 0.33 1.32 0.66 2 1 C1.01 2.485 1.01 2.485 0 4 C-0.45139459 6.0492094 -0.45139459 6.0492094 -0.625 8.1875 C-0.74875 9.445625 -0.8725 10.70375 -1 12 C-1.66 11.67 -2.32 11.34 -3 11 C-3.36923077 4.6 -3.36923077 4.6 -1.5 1.5625 C-1.005 1.046875 -0.51 0.53125 0 0 Z " fill="#090B23" transform="translate(727,707)"/>
<path d="M0 0 C3 3 3 3 3.375 6.5 C3 10 3 10 0 13 C0 8.71 0 4.42 0 0 Z " fill="#0B5CEF" transform="translate(322,683)"/>
<path d="M0 0 C-1 3 -1 3 -4 5 C-5.32 5 -6.64 5 -8 5 C-8 5.66 -8 6.32 -8 7 C-9.32 6.67 -10.64 6.34 -12 6 C-10.37829621 4.99466333 -8.75252763 3.99588093 -7.125 3 C-5.76761719 2.1646875 -5.76761719 2.1646875 -4.3828125 1.3125 C-2 0 -2 0 0 0 Z " fill="#4957DD" transform="translate(724,681)"/>
<path d="M0 0 C0.66 0.33 1.32 0.66 2 1 C-4.14285714 6.57142857 -4.14285714 6.57142857 -9 7 C-9 6.34 -9 5.68 -9 5 C-7.54735962 4.1361871 -6.0876837 3.28419546 -4.625 2.4375 C-3.40683594 1.72400391 -3.40683594 1.72400391 -2.1640625 0.99609375 C-1.44992187 0.66738281 -0.73578125 0.33867187 0 0 Z " fill="#08A1EA" transform="translate(402,380)"/>
<path d="M0 0 C0.87398437 0.31904297 0.87398437 0.31904297 1.765625 0.64453125 C0.31113099 1.65010735 -1.14809943 2.6488356 -2.609375 3.64453125 C-3.82753906 4.47984375 -3.82753906 4.47984375 -5.0703125 5.33203125 C-7.234375 6.64453125 -7.234375 6.64453125 -9.234375 6.64453125 C-9.234375 5.98453125 -9.234375 5.32453125 -9.234375 4.64453125 C-7.84375 3.3203125 -7.84375 3.3203125 -5.984375 1.95703125 C-5.38109375 1.49941406 -4.7778125 1.04179688 -4.15625 0.5703125 C-2.234375 -0.35546875 -2.234375 -0.35546875 0 0 Z " fill="#5F30E2" transform="translate(715.234375,967.35546875)"/>
<path d="M0 0 C3.63 0 7.26 0 11 0 C11 0.66 11 1.32 11 2 C9.54263913 2.19491452 8.08405407 2.38069358 6.625 2.5625 C5.81289063 2.66691406 5.00078125 2.77132812 4.1640625 2.87890625 C2 3 2 3 0 2 C0 1.34 0 0.68 0 0 Z " fill="#4935E7" transform="translate(618,944)"/>
<path d="M0 0 C0.66 0.66 1.32 1.32 2 2 C-0.64 3.65 -3.28 5.3 -6 7 C-6.33 6.01 -6.66 5.02 -7 4 C-4.69 2.68 -2.38 1.36 0 0 Z " fill="#5430DD" transform="translate(688,911)"/>
<path d="M0 0 C1.5078125 1.28125 1.5078125 1.28125 3 3 C2.87059529 6.6233318 2.75012072 9.06985031 0.4375 11.9375 C-0.036875 12.288125 -0.51125 12.63875 -1 13 C-1 10 -1 10 0 9 C0.07179964 7.48071962 0.08392007 5.95832518 0.0625 4.4375 C0.04896484 3.19806641 0.04896484 3.19806641 0.03515625 1.93359375 C0.02355469 1.29550781 0.01195312 0.65742188 0 0 Z " fill="#289EE0" transform="translate(822,360)"/>
<path d="M0 0 C-0.33 0.99 -0.66 1.98 -1 3 C-4.5625 4.6875 -4.5625 4.6875 -8 6 C-7.6875 4.125 -7.6875 4.125 -7 2 C-4 0 -4 0 0 0 Z " fill="#0BBBEC" transform="translate(524,308)"/>
<path d="M0 0 C0.66 0.33 1.32 0.66 2 1 C1.01 2.485 1.01 2.485 0 4 C-0.99 4 -1.98 4 -3 4 C-3 4.66 -3 5.32 -3 6 C-4.65 6 -6.3 6 -8 6 C-5.63404067 3.38499232 -3.13950774 1.61000397 0 0 Z " fill="#513BD6" transform="translate(791,733)"/>
<path d="M0 0 C0.66 0.33 1.32 0.66 2 1 C-4.28571429 6.57142857 -4.28571429 6.57142857 -8 7 C-6.88424427 3.65273281 -6.48655378 3.37920252 -3.5625 1.75 C-2.386875 1.1725 -1.21125 0.595 0 0 Z " fill="#585DE9" transform="translate(780,648)"/>
<path d="M0 0 C-2.97 1.65 -5.94 3.3 -9 5 C-9.33 4.34 -9.66 3.68 -10 3 C-3.375 -1.125 -3.375 -1.125 0 0 Z " fill="#5A2CE0" transform="translate(691,984)"/>
<path d="M0 0 C0.66 0.33 1.32 0.66 2 1 C0.35 2.65 -1.3 4.3 -3 6 C-3.99 5.67 -4.98 5.34 -6 5 C-4.06745228 2.9754262 -2.36841312 1.57894208 0 0 Z " fill="#4E2DD0" transform="translate(679,916)"/>
<path d="M0 0 C3.60296594 -0.41176754 4.78402067 -0.1535853 7.8125 2 C8.534375 2.66 9.25625 3.32 10 4 C7 5 7 5 5.17578125 4.22265625 C3.45052083 3.1484375 1.72526042 2.07421875 0 1 C0 0.67 0 0.34 0 0 Z " fill="#157AD7" transform="translate(475,539)"/>
<path d="M0 0 C0.66 0.33 1.32 0.66 2 1 C0.73760288 1.86658615 -0.53527501 2.71792059 -1.8125 3.5625 C-2.87404297 4.27599609 -2.87404297 4.27599609 -3.95703125 5.00390625 C-6 6 -6 6 -9 5 C-7.54735962 4.1361871 -6.0876837 3.28419546 -4.625 2.4375 C-3.40683594 1.72400391 -3.40683594 1.72400391 -2.1640625 0.99609375 C-1.44992187 0.66738281 -0.73578125 0.33867187 0 0 Z " fill="#34A4EF" transform="translate(787,391)"/>
<path d="M0 0 C4.19360449 0.67097672 7.40334352 2.8558394 11 5 C8 6 8 6 5.95703125 5.0390625 C5.24933594 4.57242187 4.54164063 4.10578125 3.8125 3.625 C3.09707031 3.16351563 2.38164063 2.70203125 1.64453125 2.2265625 C1.10183594 1.82179688 0.55914063 1.41703125 0 1 C0 0.67 0 0.34 0 0 Z " fill="#31A6E9" transform="translate(733,381)"/>
<path d="M0 0 C0.66 0.33 1.32 0.66 2 1 C-1.07999946 4.67230705 -3.2482602 5.56802365 -8 6 C-5.38485683 3.87961365 -2.80362384 1.86908256 0 0 Z " fill="#10BADE" transform="translate(580,272)"/>
<path d="M0 0 C0.66 0.33 1.32 0.66 2 1 C0.35 2.65 -1.3 4.3 -3 6 C-3.99 5.34 -4.98 4.68 -6 4 C-4.02 2.68 -2.04 1.36 0 0 Z " fill="#5731D6" transform="translate(715,894)"/>
<path d="M0 0 C4.12751449 0.60698743 7.3321148 2.03810791 11 4 C9.4375 4.75 9.4375 4.75 7 5 C4.49713591 3.86915563 2.32992278 2.47860484 0 1 C0 0.67 0 0.34 0 0 Z " fill="#4B85E8" transform="translate(778,492)"/>
<path d="M0 0 C2.25 0.25 2.25 0.25 4 1 C1.6875 3.0625 1.6875 3.0625 -1 5 C-1.99 4.67 -2.98 4.34 -4 4 C-2.25 1.9375 -2.25 1.9375 0 0 Z " fill="#0CBFEA" transform="translate(535,299)"/>
<path d="M0 0 C0.556875 0.226875 1.11375 0.45375 1.6875 0.6875 C-0.6225 2.0075 -2.9325 3.3275 -5.3125 4.6875 C-5.9725 4.0275 -6.6325 3.3675 -7.3125 2.6875 C-2.88173077 -0.38942308 -2.88173077 -0.38942308 0 0 Z " fill="#612AE4" transform="translate(743.3125,950.3125)"/>
<path d="M0 0 C0 0.99 0 1.98 0 3 C-2.5 4.6875 -2.5 4.6875 -5 6 C-5.66 5.34 -6.32 4.68 -7 4 C-4.69 2.68 -2.38 1.36 0 0 Z " fill="#5B34DE" transform="translate(740,879)"/>
<path d="M0 0 C3.3 1.65 6.6 3.3 10 5 C6 6 6 6 2.75 4.1875 C1.8425 3.465625 0.935 2.74375 0 2 C0 1.34 0 0.68 0 0 Z " fill="#0B4BCD" transform="translate(499,665)"/>
<path d="M0 0 C-2.64 1.65 -5.28 3.3 -8 5 C-7 1 -7 1 -5.125 -0.3125 C-3 -1 -3 -1 0 0 Z " fill="#0899ED" transform="translate(362,407)"/>
<path d="M0 0 C3.96 1.98 3.96 1.98 8 4 C7.01 4.66 6.02 5.32 5 6 C2.5 4.6875 2.5 4.6875 0 3 C0 2.01 0 1.02 0 0 Z " fill="#1CAEE1" transform="translate(740,311)"/>
<path d="M0 0 C0.66 0.33 1.32 0.66 2 1 C0.95125002 3.62187494 0.35068687 4.79371361 -2.125 6.25 C-2.74375 6.4975 -3.3625 6.745 -4 7 C-4 5 -4 5 -2.5625 3.5 C-2.046875 3.005 -1.53125 2.51 -1 2 C-0.67 1.34 -0.34 0.68 0 0 Z " fill="#5436E6" transform="translate(783,781)"/>
<path d="M0 0 C4.455 1.98 4.455 1.98 9 4 C8.34 4.66 7.68 5.32 7 6 C4.525 5.01 4.525 5.01 2 4 C2 3.34 2 2.68 2 2 C1.34 2 0.68 2 0 2 C0 1.34 0 0.68 0 0 Z " fill="#073FD0" transform="translate(467,740)"/>
<path d="M0 0 C-0.8125 1.9375 -0.8125 1.9375 -2 4 C-2.99 4.33 -3.98 4.66 -5 5 C-5.66 4.34 -6.32 3.68 -7 3 C-2.25 0 -2.25 0 0 0 Z " fill="#344CD7" transform="translate(660,718)"/>
<path d="M0 0 C1.98 0 3.96 0 6 0 C3.94766315 2.2477975 2.99332739 3.0022242 0 4 C0 2.68 0 1.36 0 0 Z " fill="#407CE4" transform="translate(700,579)"/>
<path d="M0 0 C0.99 0.66 1.98 1.32 3 2 C1.35 3.98 -0.3 5.96 -2 8 C-2.66 7.67 -3.32 7.34 -4 7 C-2.68 4.69 -1.36 2.38 0 0 Z " fill="#060C21" transform="translate(802,519)"/>
<path d="M0 0 C-0.75 1.9375 -0.75 1.9375 -2 4 C-4 4.875 -4 4.875 -6 5 C-6.66 4.34 -7.32 3.68 -8 3 C-2.25 0 -2.25 0 0 0 Z " fill="#1D8CE1" transform="translate(538,459)"/>
<path d="M0 0 C0 0.99 0 1.98 0 3 C-3.22791555 5.1519437 -4.28400809 5.20086443 -8 5 C-5.44008376 2.98863724 -2.95409701 1.37154504 0 0 Z " fill="#1E94E5" transform="translate(591,430)"/>
<path d="M0 0 C-2.64 1.65 -5.28 3.3 -8 5 C-8 4.01 -8 3.02 -8 2 C-3.71900826 -1.23966942 -3.71900826 -1.23966942 0 0 Z " fill="#10ADEA" transform="translate(527,381)"/>
<path d="M0 0 C-2.68841859 2.25245881 -4.64641875 3.88213958 -8 5 C-8.33 4.34 -8.66 3.68 -9 3 C-5.92807025 0.26939578 -4.09590633 -0.34132553 0 0 Z " fill="#11B1E7" transform="translate(560,361)"/>
</svg>
